<?xml version="1.0" encoding="UTF-8" standalone="no"?>
<svg
   xmlns:dc="http://purl.org/dc/elements/1.1/"
   xmlns:cc="http://creativecommons.org/ns#"
   xmlns:rdf="http://www.w3.org/1999/02/22-rdf-syntax-ns#"
   xmlns:svg="http://www.w3.org/2000/svg"
   xmlns="http://www.w3.org/2000/svg"
   xmlns:sodipodi="http://sodipodi.sourceforge.net/DTD/sodipodi-0.dtd"
   xmlns:inkscape="http://www.inkscape.org/namespaces/inkscape"
   width="614"
   height="243"
   viewBox="0 0 162.45416 64.293752"
   version="1.1"
   id="svg8"
   sodipodi:docname="noprevlink.svg"
   inkscape:version="1.0.1 (3bc2e813f5, 2020-09-07)">
  <defs
     id="defs2">
    <inkscape:path-effect
       effect="bspline"
       id="path-effect1440"
       is_visible="true"
       lpeversion="1"
       weight="33.333333"
       steps="2"
       helper_size="0"
       apply_no_weight="true"
       apply_with_weight="true"
       only_selected="false" />
    <rect
       x="42.333333"
       y="58.208333"
       width="71.4375"
       height="5.2916666"
       id="rect1432" />
    <rect
       x="134.9375"
       y="42.333333"
       width="23.816565"
       height="7.4903316"
       id="rect1426" />
    <rect
       x="2.6458333"
       y="42.333333"
       width="34.395833"
       height="11.90625"
       id="rect1333" />
    <rect
       x="127"
       y="14.552083"
       width="9.260416"
       height="11.90625"
       id="rect1323" />
    <clipPath
       clipPathUnits="userSpaceOnUse"
       id="clipPath1134">
      <path
         id="path1136"
         style="fill:#ff0000;fill-opacity:1;fill-rule:nonzero;stroke:none"
         d="m 29.5,39.5 v 56 h 56 v -56 z m 13.816406,1.697266 h 3.214844 v 0.03125 0.06836 0.15625 0.08984 0.08789 0.0957 0.210938 0.201172 0.09961 0.05078 0.269532 c 0,0.04173 4e-6,0.08327 0,0.125 0,0.08409 -8e-6,0.167858 0,0.251953 4e-6,0.06459 7.6e-5,0.128729 0,0.193359 1.02e-4,0.01684 3e-6,0.03392 0,0.05078 0.108016,0.318161 0.203309,0.623024 0.01563,0.136718 0.002,0.0198 -0.0033,0.08451 -0.0039,0.279297 0.05962,0.160833 0.103958,0.314013 0.09961,0.431641 0.171342,0.246281 0.222419,0.415297 0.208984,0.921875 v 0.0293 c 0.261914,0.385242 0.493796,0.790614 0.703126,1.210937 l 0.742187,0.386719 c 0.184769,-0.799069 0.231,-1.047758 0.388672,-0.294922 -0.0388,0.146087 -0.07279,0.294079 -0.107422,0.441406 l 0.6875,0.357422 c 0.690148,-0.257136 0.887255,0.389562 2.207031,1.396484 0.02192,0.0166 0.0072,0.372552 0.0059,0.416016 -0.08202,0.530776 -0.221602,1.048435 -0.322266,1.576172 0.629742,0.464799 1.026292,0.682303 1.330078,0.839844 -0.92636,-2.965388 0.44818,-0.934378 0.578125,-0.523438 0.143698,0.454322 0.06722,0.939914 0.05664,1.404297 -0.0247,0.429523 -0.126786,0.831251 -0.259766,1.224609 0.605391,-0.05547 0.820137,0.398539 1.785156,1.419922 0.07106,0.07522 0.01814,0.747167 0.01172,0.888672 -0.04207,0.50631 0.04902,1.024749 0,1.529297 -0.07453,0.766991 -0.115277,0.875117 -0.259765,1.537109 -0.228836,1.003567 -0.920422,1.801494 -1.232422,2.765626 -0.290518,0.796694 -0.797975,1.479091 -1.195313,2.220703 -0.355529,0.758521 -0.699073,1.519176 -1.083984,2.263671 -0.55711,0.831436 -0.935288,1.855519 -1.685547,2.550782 -0.392682,0.363889 -0.523982,0.433264 -0.919922,0.691406 -0.50392,0.328405 -0.981094,0.696627 -1.476562,1.037109 0.06554,0.02847 0.112782,0.05275 0.183593,0.08203 0.851835,0.0083 1.057823,0.03497 0.980469,0.361328 0.006,0.002 0.0096,0.0039 0.01563,0.0059 0.02913,0.0096 1.81e-4,0.06118 0,0.0918 -0.0027,0.460721 -0.0079,-0.41881 0,0.416016 -0.05866,0.633203 0.09251,1.298264 0.0098,1.929687 -0.151808,1.157343 -0.44507,2.222632 -0.789063,3.298828 1.090776,0.121186 1.228328,0.06976 1.160156,0.607422 0.0506,0.0087 -0.0028,0.102971 -0.0039,0.154297 -6.7e-5,0.0063 -0.002,0.04463 -0.002,0.08203 0.0355,0.02429 0.02348,0.07081 -0.002,0.121094 -1.57e-4,4.73e-4 1.69e-4,0.0057 0,0.0059 -0.0032,0.0039 -0.0065,0.0078 -0.0098,0.01172 -0.02103,0.03864 -0.04529,0.07951 -0.05859,0.111328 -0.06595,0.158272 -0.06383,0.501454 -0.230468,0.460938 h -0.002 c -0.0179,0.05376 -0.0165,0.03284 -0.0625,0.164062 -0.05429,0.154884 -0.106961,0.311185 -0.160157,0.466797 h 1.652344 1.449219 1.201172 c 0.290404,-0.0223 0.592217,0.03628 0.880859,0 0.12601,-0.01591 0.243899,-0.07095 0.367188,-0.101562 0.534561,-0.158741 1.073871,-0.023 1.611328,-0.0332 -0.181841,-0.06954 0.447939,0.04532 0.345703,-0.0078 -0.0497,-0.0257 -0.112183,-0.0025 -0.167969,-0.0078 -0.396548,-0.03764 0.785345,-0.165513 1.183594,-0.173828 0.748411,-0.146154 1.518278,-0.150997 2.277344,-0.107422 0.69078,0.01314 1.381436,0.0017 2.072265,0 0.293053,-0.03124 0.589521,0.02495 0.882813,0 0.04388,-0.01527 0.08893,-0.0298 0.132812,-0.04492 -0.01172,-0.0026 -0.0465,-0.0041 -0.03516,-0.0078 0.223835,-0.07155 0.406594,-0.108691 0.628906,-0.158203 0.587596,-0.135118 1.188993,0.0037 1.777344,-0.06836 0.626113,-0.03515 1.254199,-0.01613 1.880859,-0.03125 0.674525,-0.0084 1.348894,-2.65e-4 2.023438,0 0.402523,-0.01546 0.692417,0.02226 1.111328,0.132812 0.185242,0.04887 0.380831,0.154776 0.566406,0.222656 -0.416523,-0.14759 0.681772,0.100178 0.708985,0.105469 0.284583,0.04309 0.572093,0.05535 0.859375,0.05859 0.341159,-0.0058 0.682221,-0.0079 1.023437,-0.0059 0.61002,-0.0141 1.171855,-0.02631 1.763672,0.164062 0.01277,0.0041 0.02269,0.01468 0.03516,0.01953 -0.03555,-0.0456 0.135613,-0.02648 0.296875,-0.04102 0.161016,-0.01436 0.320658,-0.02561 0.482422,-0.02734 0.263146,0.0023 0.525894,0.01577 0.789063,0.0098 0.174175,-0.0017 0.349276,-0.002 0.523437,-0.002 0.241395,-1.62e-4 0.481258,-4.5e-5 0.722656,0 0.290434,1.9e-5 0.580675,0 0.871094,0 h 1.087891 0.572265 0.654297 0.433594 0.3125 0.308594 0.443359 0.369141 0.162109 0.148438 0.171875 0.06055 0.002 0.07031 0.09961 c 0.591637,-0.03897 0.856078,0.784166 0.824218,1.607422 0.03186,0.823255 -0.232576,1.646388 -0.824218,1.607422 h -0.09961 -0.07031 -0.002 -0.06055 -0.171875 -0.148438 -0.162109 -0.369141 -0.443359 -0.308594 -0.3125 -0.433594 -0.654297 -0.570312 c -0.362661,4e-6 -0.727198,0 -1.089844,0 -0.290638,0 -0.580448,1.9e-5 -0.871094,0 -0.241194,-4.5e-5 -0.481446,-1.59e-4 -0.722656,0 -0.152458,-4e-6 -0.306518,-4.19e-4 -0.458984,0 -0.284769,0.0053 -0.568804,-0.0018 -0.853516,-0.0078 -0.103068,-0.0102 -0.195849,0.01393 -0.302734,0.02148 -0.529332,0.03691 -0.977772,0.0098 -1.472657,-0.136719 -0.274079,1.35e-4 -0.548195,6.31e-4 -0.822265,0 -0.349232,-0.0019 -0.699638,0.0017 -1.048828,0.0059 -0.480012,-0.0072 -0.958085,-0.03573 -1.431641,-0.119141 -0.406072,-0.07971 -0.810282,-0.153559 -1.21289,-0.248047 -0.106285,-0.04001 -0.299737,-0.111668 -0.390626,-0.154297 -0.111868,0.0013 -0.304176,0.0043 -0.167968,0 -0.648329,-2.72e-4 -1.295046,-0.0068 -1.94336,0 -0.543919,0.01289 -1.088878,0.0066 -1.632812,0.01563 -0.47246,0.04422 -0.946918,0.04536 -1.419922,0.01172 -0.249921,0.05163 -0.494137,0.146823 -0.742188,0.195312 -0.516406,0.100838 -1.020762,0.100743 -1.542968,0.08789 -0.76046,0.0019 -1.520972,0.01952 -2.28125,-0.0039 -0.703151,-0.05167 -1.394996,0.02635 -2.091797,0.113281 -0.01599,-0.0034 -0.06017,0.002 -0.04883,-0.0098 0.03836,-0.03953 0.194105,-0.09916 0.140625,-0.08594 -0.118262,0.02907 -0.220461,0.10264 -0.337891,0.134766 -0.399379,0.109455 -0.706399,0.159839 -1.099609,0.15039 -0.29709,-0.002 -0.591411,-0.03642 -0.882813,-0.05078 -0.653556,0.147175 -1.30717,0.219121 -1.976562,0.183594 h -1.201172 -1.449219 -2.546875 v -0.759766 c -0.08767,0.210576 -0.174094,0.420785 -0.271484,0.626953 -0.06387,0.08536 -0.125537,0.171885 -0.191407,0.25586 -1.52e-4,0.0046 1.55e-4,0.0091 0,0.01367 -3.71e-4,0.01096 0.01096,0.03377 0,0.0332 -0.01107,-5.73e-4 -0.02213,-0.0014 -0.0332,-0.002 -0.04063,0.05171 -0.07679,0.106335 -0.117187,0.158204 -0.02352,0.06043 -0.03383,0.106044 -0.06445,0.171875 -0.06403,0.13765 -0.394542,0.457777 -0.3125,0.330078 0.113229,-0.1762 0.248142,-0.336572 0.376953,-0.501953 0.02209,-0.05675 0.04203,-0.111195 0.05859,-0.16211 -0.29507,-0.0156 -0.589838,-0.0366 -0.884766,-0.05469 -1.782042,0.05709 -2.178279,0.273527 -2.226562,-0.138672 -0.0019,-1.21e-4 -0.0039,1.2e-4 -0.0059,0 2.3e-4,-0.01215 0.0017,-0.01751 0.002,-0.0293 -0.01807,-0.233748 0.03644,-0.634214 0.02539,-1.369141 -0.0107,-0.322382 -0.04902,-0.644289 -0.04297,-0.966797 0.0054,-0.294361 0.02839,-0.597824 0.0625,-0.904296 -0.475229,-0.149748 -0.955001,-0.277554 -1.449219,-0.320313 -0.09033,-0.0078 -0.07582,0.07915 -0.03516,0.189453 0.07185,0.17116 0.147805,0.342445 0.230469,0.507813 0.02268,0.04558 -0.06245,-0.08375 -0.07617,-0.132813 -0.02736,-0.09797 -0.108679,-0.251257 -0.154297,-0.375 -0.117795,-0.280603 -0.206835,-0.569493 -0.173828,-0.888672 0.0011,-0.384842 0.0032,-0.76951 -0.0059,-1.154296 -9.07e-4,-0.602382 0.01931,-1.20405 0.0918,-1.802735 0.05921,-0.544307 0.138313,-1.085077 0.21289,-1.626953 -0.23887,-0.227423 -0.52451,-0.505101 -0.925781,-0.859375 -0.01414,-0.0124 0.02437,-0.961422 0.02734,-1.058594 0.384604,-1.781968 0.06038,-0.436345 0.441406,-1.751953 0.07495,-0.258822 0.108471,-0.529433 0.193359,-0.785156 0.230105,-0.693237 0.259337,-0.724469 0.521485,-1.298828 0.139784,-0.284003 0.289784,-0.564541 0.433593,-0.847656 -0.154465,-0.09343 -0.174617,-0.278092 -0.166015,-0.855469 -0.395139,1.114848 -1.680187,1.491696 -2.72461,0.59375 -0.129324,-0.143256 -0.300318,-0.257152 -0.386718,-0.429688 -0.253036,-0.505109 -0.302224,-0.897639 -0.31836,-1.34375 -0.01271,-0.0096 -0.02727,-0.01759 -0.03516,-0.0293 -0.0064,0.183284 -0.154235,0.09855 -0.707031,-0.578125 0.01432,-0.363217 -0.02103,-0.735918 0,-1.097656 -0.306138,0.125927 -0.613575,0.249195 -0.91211,0.388672 -0.336607,-0.47167 -0.772868,-0.885235 -1.009765,-1.414063 -0.100725,-0.224845 0.01673,-0.578128 0.171875,-0.90625 0.01509,-0.0597 0.03297,-0.118237 0.04883,-0.177734 -0.09219,-0.268521 -0.178981,-0.52658 -0.244141,-0.742187 -0.249479,0.502304 -0.515693,0.9928 -0.851562,1.439453 -0.09311,0.123836 -0.260449,-0.169362 -0.376953,-0.271485 -0.437957,-0.383871 -0.73769,-1.008025 -0.742188,-1.585937 0.0013,-0.467596 -3.66e-4,-0.93476 -0.0039,-1.402344 0.0045,-0.522376 0.06685,-1.037639 0.117187,-1.55664 0.03248,-0.642513 0.0463,-1.288123 0.138672,-1.925782 0.06317,-0.400649 0.136986,-0.800413 0.238281,-1.193359 0.127408,-0.534524 0.167378,-1.09742 0.427735,-1.591797 0.248085,-0.431335 0.522222,-0.841893 0.71875,-1.302734 0.181982,-0.221133 0.387795,-0.425915 0.546875,-0.664063 0.09679,-0.144896 -0.225743,0.231598 -0.355469,0.382813 -0.01095,0.02055 -0.01599,0.04412 -0.02734,0.06445 -0.0081,0.01436 0.0029,-0.03647 0.01367,-0.04883 0.0045,-0.0053 0.0085,-0.0096 0.01367,-0.01563 0.283105,-0.531317 0.439005,-1.12673 0.705078,-1.664063 l 2.205078,0.898438 c 0.01027,-0.01469 0.01898,-0.03025 0.0293,-0.04492 0.180095,-0.289928 0.443132,-0.504415 0.691406,-0.730469 0.0072,-0.0064 -0.01789,0.01012 -0.02734,0.01172 -0.0373,0.0063 0.04373,-0.06351 0.06641,-0.09375 0.193057,-0.26004 0.31601,-0.403755 0.421875,-0.5 -0.01896,0.02349 -0.03074,0.05076 -0.01367,0.0625 0.519027,0.358764 1.04752,0.705133 1.582031,1.041015 0.02595,0.0099 0.08061,0.03344 0.105469,0.04297 -0.507773,-0.362579 -0.770794,-0.641073 -0.978516,-0.869141 -0.208897,-0.105093 -0.414884,-0.215819 -0.626953,-0.314453 -0.01762,-0.0082 -0.04286,0.01057 -0.0625,0.03125 0.223182,-0.198791 0.393836,-0.04137 0.689453,0.283203 0.491271,0.247156 0.980858,0.499777 1.466797,0.757813 0.164821,-0.217328 0.330385,-0.435336 0.503907,-0.646484 0.37099,-0.465693 0.756645,-0.919385 1.123046,-1.388672 h -0.464843 v -1.5 c 0,-0.05866 -0.05866,-0.176284 0,-0.175781 v -0.119141 c -0.132042,-0.181548 -0.212205,-0.444524 -0.248047,-0.9375 -0.001,-0.01392 0.0027,-0.02164 0.002,-0.03516 -0.01278,-0.08334 -0.01484,-0.102799 -0.06445,-0.447266 -0.03666,0.21503 0.0032,-0.0254 0.02539,-0.177734 -0.01577,-0.09593 -0.02439,-0.190779 -0.02539,-0.292969 -0.0073,0.197534 -0.0067,0.303656 -0.0098,-0.09766 4.95e-4,-0.01686 -7.5e-5,-0.05438 0,-0.06836 -1.93e-4,-0.07502 4e-6,-0.149586 0,-0.224609 -1.1e-5,-0.08417 -4e-6,-0.167783 0,-0.251953 v -0.125 -0.269532 -0.05078 -0.09961 -0.201172 -0.210938 -0.0957 -0.08789 -0.08984 -0.15625 -0.06836 z m -0.841797,7.849609 c -0.05933,0.07823 -0.124149,0.152899 -0.18164,0.232422 0.516487,0.203955 0.703673,0.317246 0.666015,0.474609 0.0067,0.0035 0.0108,0.0063 0.01758,0.0098 h 0.002 c 0.0044,-0.14787 0.01371,-0.295239 0.01367,-0.44336 -0.172898,-0.08979 -0.345465,-0.182044 -0.517579,-0.273437 z m 0.517579,0.273437 c 0.03587,0.01863 0.0715,0.03812 0.107421,0.05664 0.01189,-0.192221 -0.01868,-0.311395 -0.105468,-0.662109 -0.0044,0.201623 -0.002,0.403596 -0.002,0.605468 z m 0.107421,0.05664 c -10e-4,0.01661 -0.0019,0.03614 -0.0039,0.05469 0.0029,-0.01617 0.0036,-0.03983 0.0078,-0.05273 -0.0013,-6.65e-4 -0.0026,-0.0013 -0.0039,-0.002 z m -0.0039,0.05469 c -0.02556,0.14402 -0.01189,0.382775 -0.117187,0.332031 -1.16e-4,0.0039 1.2e-4,0.0078 0,0.01172 0.01125,0.0062 0.02195,0.01335 0.0332,0.01953 0.05956,0.03265 0.05942,-0.124811 0.07227,-0.191406 0.01684,-0.08757 0.0054,-0.113597 0.01172,-0.171875 z m -0.802734,-0.152344 c -0.09651,-0.03811 -0.185155,-0.07453 -0.306641,-0.121094 0.08303,0.05929 0.175082,0.118391 0.269531,0.179688 0.01342,-0.01881 0.02357,-0.03987 0.03711,-0.05859 z m 6.072265,27.832031 c -0.166462,-0.02863 -0.334838,-0.04414 -0.501953,-0.06836 0.154889,0.09503 0.289738,0.183448 0.470703,0.287109 h 0.002 c 0.01326,-0.08878 0.02069,-0.150904 0.0293,-0.21875 z m -0.501953,-0.06836 c -0.260231,-0.159666 -0.493805,-0.305695 -0.689453,-0.439453 -0.03576,0.110518 -0.06628,0.221043 -0.103516,0.332031 0.26504,0.03105 0.528993,0.06917 0.792969,0.107422 z m -0.689453,-0.439453 c 0.01073,-0.03317 0.02066,-0.06646 0.03125,-0.09961 -0.06165,-0.0068 -0.156659,-0.02499 -0.224609,-0.0332 0.05995,0.04235 0.126815,0.08732 0.193359,0.132813 z M 44.050781,42.955078 c 0.02604,-0.03122 -0.06276,0.05362 -0.09375,0.08008 -0.01016,0.02667 -0.01547,0.03332 -0.02539,0.05859 0.04346,-0.04745 0.07449,-0.0851 0.11914,-0.138672 z m 2.476563,0.07813 c 5.3e-5,0.0077 -0.0015,0.0739 -0.002,0.134766 0.0015,0.0043 0.0024,0.0035 0.0039,0.0078 -10e-4,-0.06988 -0.002,-0.149914 -0.002,-0.142578 z m -0.533203,0.08008 c 0.217305,0.327909 0.378547,0.552872 0.501953,0.714844 -0.06699,-0.201277 -0.155832,-0.393888 -0.285156,-0.556641 -0.04055,-0.05103 -0.132041,-0.104724 -0.216797,-0.158203 z m -2.628907,0.56836 c 1.92e-4,0.01908 -0.0058,0.03531 -0.0039,0.05664 0.01687,0.07432 0.03392,0.148346 0.05078,0.222657 0.0019,-0.01251 -2.64e-4,-0.0289 0.002,-0.04102 -0.02083,-0.08628 -0.03541,-0.167504 -0.04883,-0.238281 z m 3.232422,0.572265 c -0.02668,0.0897 -0.11157,0.291361 -0.160156,0.410156 0.07407,-0.04029 0.135426,-0.06229 0.162109,-0.04102 0.01586,-0.09815 0.01823,-0.210674 0.0039,-0.34375 -9.17e-4,-0.0085 -0.0048,-0.01687 -0.0059,-0.02539 z m -2.998047,0.503906 c 0.0145,0.03585 0.01617,0.05101 0.0332,0.0918 -6e-6,-0.01462 2.01e-4,-0.02302 0,-0.03711 -0.01144,-0.0178 -0.02358,-0.04034 -0.0332,-0.05469 z m 0.740235,0.982422 c 0.02653,0.0491 0.01245,0.02782 0.04102,0.08008 0.08757,0.03885 0.340623,0.174259 0.263672,0.117188 -0.117872,-0.08743 -0.20574,-0.135937 -0.304687,-0.197266 z m 6.324218,4.1875 c -0.01642,0.01005 -0.02436,0.03072 -0.03906,0.04297 l 0.002,0.002 c 0.02196,-0.02179 0.05357,-0.05503 0.03711,-0.04492 z m -0.002,0.0293 c -0.01157,0.007 -0.02183,0.01456 -0.0332,0.02148 0.0011,0.0015 0.0028,0.0043 0.0039,0.0059 0.01116,-0.01058 0.04784,-0.03848 0.0293,-0.02734 z m 3.13086,6.400391 c -0.0034,-0.0094 -0.01745,0.01115 -0.02539,0.01758 -0.0085,0.0067 -0.03039,0.02878 -0.04687,0.04687 0.03893,-0.01661 0.0839,-0.03264 0.07227,-0.06445 z m -0.148438,0.0625 c -0.0061,0.01324 -0.01346,0.02582 -0.01953,0.03906 0.0042,-0.0017 0.0075,-0.0022 0.01172,-0.0039 0.0036,-0.01273 -7.19e-4,-0.01392 0.0078,-0.03516 z m -17.164062,4.757812 c -0.07354,0.107259 -2.12e-4,0.29749 -0.02734,0.4375 -0.01268,0.06542 -0.0031,-0.134614 0,-0.201172 0.0038,-0.08274 0.01742,-0.158784 0.02734,-0.236328 z m 2.533203,1.160157 c -0.07918,0.0392 -0.161506,0.07283 -0.242188,0.109375 -0.05381,0.606921 0.164538,1.348055 0.230469,1.728515 0.06688,-0.913337 0.04147,-1.437809 0.01172,-1.83789 z m 2.732422,8.435547 c -0.009,0.0061 -0.01426,0.0093 -0.02344,0.01562 -0.04796,0.04513 -0.178041,0.194157 -0.134765,0.144532 0.0494,-0.05662 0.107613,-0.104772 0.158203,-0.160156 z m 26.427734,10.386718 c 0.01057,0.0016 0.01919,0.0038 0.0293,0.0039 0.07476,5.45e-4 0.149926,-7.79e-4 0.224609,-0.0039 0.08453,-0.0036 -0.07584,-0.0022 -0.253906,0 z" />
    </clipPath>
    <clipPath
       clipPathUnits="userSpaceOnUse"
       id="clipPath1166">
      <path
         id="path1168"
         style="fill:#ff0000;fill-opacity:1;fill-rule:nonzero;stroke:none;stroke-width:0.264583"
         d="M 7.8439655,6.5210489 V 10.676868 H 11.999784 V 9.7208535 L 11.413257,9.5384358 c 0.02227,-0.071541 0.04526,-0.1426491 0.06666,-0.2144573 0.0016,-0.00548 0.0032,-0.01098 0.0047,-0.016536 -7.94e-4,-0.00464 -0.0017,-0.017203 -0.0021,-0.02222 -1.3e-4,-0.00119 -3.97e-4,-0.00243 -5.29e-4,-0.00362 -0.0029,-0.00132 -0.0059,-0.00228 -0.0088,-0.00362 -0.01734,-0.00808 -0.0024,-0.033793 0.0057,-0.055294 1.3e-5,-0.023021 -5.03e-4,-0.04573 0.001,-0.069763 6.08e-4,-0.0093 -0.0017,0.018624 -0.0026,0.027905 -3.18e-4,-0.041533 -5.82e-4,-0.083005 -5.29e-4,-0.1245402 3.7e-5,-0.032445 2e-6,-0.064707 0,-0.097152 4e-6,-0.019251 1e-6,-0.038625 0,-0.057878 -10e-7,-0.055566 0,-0.1113488 0,-0.1669148 V 8.625832 8.5080099 8.4165426 8.290452 8.1607443 8.0222513 7.9033957 7.7462993 7.6470806 7.5550966 7.5075542 7.4579448 7.4538094 c 0.05021,-0.092715 0.09927,-0.1861228 0.150895,-0.2780192 0.0139,-0.030108 0.03134,-0.068764 0.03669,-0.070797 7.15e-4,-2.645e-4 0.0014,-2.46e-4 0.0021,-5.291e-4 0.0015,-0.00249 0.0026,-0.00526 0.0041,-0.00775 0.0095,-0.015367 0.03334,-0.01673 0.04444,-0.031006 -0.0066,0.0056 -0.01304,0.011451 -0.01964,0.017052 -0.0048,0.0085 -0.0044,0.00743 -0.0088,0.014986 0.01231,-0.00451 0.02314,-0.00774 0.03514,-0.011885 0.05432,-0.06961 0.15348,-0.1553345 0.181901,-0.1415934 0.0087,0.00421 0.02388,0.00957 0.03359,0.013952 0.01832,-0.00358 0.04127,-0.00473 0.06253,-0.00672 V 6.5210348 Z m 4.0932905,0.4371826 c -0.0138,0.0027 -0.02719,0.00564 -0.03876,0.0093 0.02606,0.014618 0.05033,0.032219 0.07597,0.047542 0.01057,-0.00214 0.01762,-0.00306 0.02532,-0.00414 v -0.025839 c -0.02176,-0.00916 -0.04435,-0.018666 -0.06253,-0.026872 z m -0.454753,2.3269898 c 6.09e-4,0.00561 0.0023,0.011419 0.0031,0.017052 0.0014,-0.00578 0.0038,-0.011247 0.0052,-0.017052 -0.0027,-0.00122 -0.0056,-0.00185 -0.0083,-0.0031 4.4e-5,7.144e-4 -5e-5,0.00241 0,0.0031 z m 0.0031,0.017052 c -4.23e-4,0.00169 -6.08e-4,0.00347 -10e-4,0.00517 0.0023,0.013481 0.0057,0.026136 0.01395,0.063045 -0.0076,-0.02344 -0.0096,-0.045642 -0.01292,-0.068213 z m 0.361219,-2.3078694 c -0.01524,0.013237 -0.02472,0.028704 -0.0217,0.048059 4.76e-4,0.00298 0.0016,0.00581 0.0021,0.00878 0.0298,-0.00854 0.05556,-0.014216 0.08268,-0.020672 z m 0.152962,0.023254 c -0.0036,0.00233 -0.0074,0.00458 -0.01085,0.00672 0.0036,0.0022 0.0072,0.00451 0.01085,0.00672 z m -0.05426,0.034106 c -0.04078,0.024701 -0.07475,0.044331 -0.104387,0.059945 0.02063,0.095618 0.04978,0.1890085 0.0863,0.280603 0.02415,0.014303 0.04831,0.030428 0.07235,0.047542 V 7.0832874 Z m -0.01809,0.3405476 c -0.08063,-0.047748 -0.162245,-0.07212 -0.245463,-0.05426 0.09851,0.056864 0.197573,0.1127805 0.295589,0.1705322 -0.01707,-0.038741 -0.0345,-0.077079 -0.05013,-0.116272 z m 0.05013,0.116272 c 0.0043,0.00983 0.0085,0.019651 0.01292,0.029455 0.0014,-0.00655 0.0027,-0.01316 0.0041,-0.020153 -0.0056,-0.00328 -0.01148,-0.00601 -0.01705,-0.0093 z m 0.01705,0.0093 c 0.0017,0.00101 0.0034,0.00209 0.0052,0.0031 v -0.029973 c -0.0016,0.00807 -0.0033,0.017571 -0.0052,0.026872 z M 11.680941,7.3380533 c -0.01255,0.00275 -0.0251,0.00233 -0.03772,0.00723 -0.153847,0.059775 0.09594,0.1771914 0.331762,0.2749184 0.0026,-0.012298 0.0067,-0.035874 0.0098,-0.050643 -0.101534,-0.076713 -0.199672,-0.1596996 -0.303857,-0.2315104 z m -0.170533,1.8557008 c -0.0063,0.015177 -0.0231,0.061268 -0.0186,0.045475 0.0055,-0.019145 0.01275,-0.030048 0.01912,-0.045475 0,0 -5.29e-4,0 -5.29e-4,0 z m 0,0.018603 c 0.0079,-0.01919 -0.02214,0.03882 -0.01654,0.060978 0.0047,-0.020579 0.0085,-0.041529 0.01654,-0.060978 z" />
    </clipPath>
    <clipPath
       clipPathUnits="userSpaceOnUse"
       id="clipPath1178">
      <path
         id="path1180"
         style="fill:#ff0000;fill-opacity:1;fill-rule:nonzero;stroke:none"
         d="m 44.273438,24.5 v 2.207031 0.002 0.08203 c 0.0097,-0.0032 0.01931,-0.0063 0.0293,-0.0098 0.205317,-0.263093 0.580085,-0.587091 0.6875,-0.535156 0.03292,0.01591 0.09024,0.03616 0.126954,0.05273 0.117865,-0.02303 0.250755,-0.03745 0.402343,-0.04297 -0.0036,-0.02961 -0.006,-0.06119 0.0098,-0.07617 l -0.002,-0.03516 c 0.005,-9.6e-5 0.0321,2.83e-4 0.04492,0 0.01223,-0.02774 0.0429,-0.04944 0.08789,-0.05078 0.05315,-0.0016 0.109379,0.01655 0.126953,0.05078 6.62e-4,0.0013 0.0013,0.0026 0.002,0.0039 0.02351,8.24e-4 0.0655,-0.0022 0.07031,0 5.35e-4,2.41e-4 0.0076,-2.64e-4 0.0078,0 1.75e-4,1.95e-4 0.0059,-2.1e-4 0.0059,0 0.0062,-0.0043 0.02074,0.0012 0.03125,0.002 v 0.002 c 0.004,1.82e-4 0.0057,0.0018 0.0098,0.002 0.01474,6.72e-4 0.01944,-7.25e-4 0.03516,0 v 0.002 c 0.01102,8.7e-4 0.01881,0.003 0.0293,0.0039 1.41e-4,-0.0013 -1.42e-4,-0.0026 0,-0.0039 7.56e-4,-0.0071 0.0222,-0.0052 0.02148,0.002 -1.48e-4,0.0015 1.48e-4,0.0024 0,0.0039 0.231057,0.0197 0.333281,0.04968 0.345703,0.134766 1.576711,0.172328 3.384138,0.879945 1.003906,1.574219 -0.03078,-0.0199 -0.0611,-0.0405 -0.0918,-0.06055 -0.01362,0.01454 -0.0222,0.02844 -0.03906,0.04297 l -0.783203,-0.455078 c 0.141146,0.292417 0.263674,0.589709 0.365234,0.894531 0.340337,-0.13505 0.285493,0.08395 0.09766,0.351562 0.02082,0.08197 0.05229,0.160841 0.06836,0.244141 0.032,0.16589 -0.176842,0.339091 -0.375,0.386719 v 0.002 0.59375 0.449218 0.523438 0.490234 0.476563 0.345703 0.445312 0.410157 c 0,0.20997 -4e-6,0.420887 0,0.630859 0,0.07274 1.9e-5,0.146006 0,0.21875 7e-6,0.124411 1.47e-4,0.248636 0,0.373047 -2.57e-4,0.160178 8.89e-4,0.320296 0.002,0.480469 -0.0061,0.634554 0.0071,-0.199426 -0.08008,-0.300782 0.06636,0.280298 0.08208,0.54149 0.06055,0.816407 0.03339,0.01136 0.05384,0.02394 0.08789,0.03516 0.12926,0.0426 -0.02949,0.26941 -0.05859,0.402344 -0.06675,0.30441 -0.331502,1.122892 -0.398438,1.33789 l -1.93164,-0.601562 v 4.792969 h 2.257812 v 0.03125 0.06836 0.15625 0.08984 0.08789 0.0957 0.210938 0.201172 0.09961 0.05078 0.269532 c 0,0.04173 4e-6,0.08327 0,0.125 0,0.08409 -8e-6,0.167858 0,0.251953 4e-6,0.06459 7.6e-5,0.128729 0,0.193359 1.02e-4,0.01684 3e-6,0.03392 0,0.05078 0.108016,0.318159 0.203299,0.623024 0.01563,0.136718 0.002,0.0198 -0.0033,0.08451 -0.0039,0.279297 0.05962,0.160833 0.103956,0.314013 0.09961,0.431641 0.171342,0.246281 0.222419,0.415297 0.208984,0.921875 v 0.0293 c 0.261914,0.385242 0.493796,0.790614 0.703126,1.210937 l 0.742187,0.386719 c 0.184769,-0.799069 0.231,-1.047758 0.388672,-0.294922 -0.0388,0.146087 -0.07279,0.294079 -0.107422,0.441406 l 0.6875,0.357422 c 0.690148,-0.257136 0.887255,0.389564 2.207031,1.396484 0.02192,0.0166 0.0072,0.372552 0.0059,0.416016 -0.08202,0.530776 -0.221602,1.048435 -0.322266,1.576172 0.629742,0.464799 1.026292,0.682303 1.330078,0.839844 -0.92636,-2.965388 0.44818,-0.934378 0.578125,-0.523438 0.143698,0.454322 0.06722,0.939914 0.05664,1.404297 -0.0247,0.429523 -0.126786,0.831253 -0.259766,1.224609 0.605391,-0.05547 0.820137,0.398539 1.785156,1.419922 0.07106,0.07522 0.01814,0.747167 0.01172,0.888672 -0.04207,0.50631 0.04902,1.024749 0,1.529297 -0.07453,0.766991 -0.115279,0.875119 -0.259765,1.537109 -0.228836,1.003567 -0.920422,1.801494 -1.232422,2.765626 -0.290518,0.796692 -0.797975,1.479091 -1.195313,2.220703 -0.355529,0.758521 -0.699073,1.519178 -1.083984,2.263671 -0.55711,0.831436 -0.935288,1.855519 -1.685547,2.550782 -0.392682,0.363889 -0.523982,0.433264 -0.919922,0.691406 -0.50392,0.328405 -0.981096,0.696627 -1.476562,1.037109 0.06554,0.02847 0.112782,0.05275 0.183593,0.08203 0.851835,0.0083 1.057823,0.03497 0.980469,0.361328 0.006,0.002 0.0096,0.0039 0.01563,0.0059 0.02913,0.0096 1.81e-4,0.06118 0,0.0918 -0.0027,0.460721 -0.0079,-0.41881 0,0.416016 -0.05866,0.633203 0.09245,1.298264 0.0098,1.929687 -0.151808,1.157343 -0.44507,2.222632 -0.789063,3.298828 1.090776,0.121186 1.228328,0.06976 1.160156,0.607422 0.0506,0.0087 -0.0028,0.102971 -0.0039,0.154297 -6.7e-5,0.0063 -0.002,0.04463 -0.002,0.08203 0.0355,0.02429 0.02358,0.07081 -0.002,0.121094 -1.57e-4,4.73e-4 1.69e-4,0.0057 0,0.0059 -0.0032,0.0039 -0.0065,0.0078 -0.0098,0.01172 -0.02103,0.03864 -0.04529,0.07951 -0.05859,0.111328 -0.06595,0.158272 -0.06383,0.501454 -0.230468,0.460938 h -0.002 c -0.0179,0.05376 -0.0165,0.03284 -0.0625,0.164062 -0.0544,0.155221 -0.110403,0.310968 -0.164063,0.466797 h 1.65625 1.449219 1.201172 c 0.290404,-0.0223 0.592217,0.03628 0.880859,0 0.12601,-0.01591 0.243899,-0.07095 0.367188,-0.101562 0.534561,-0.158741 1.073871,-0.023 1.611328,-0.0332 -0.181841,-0.06954 0.447939,0.0453 0.345703,-0.0078 -0.0497,-0.0257 -0.112183,-0.0025 -0.167969,-0.0078 -0.396548,-0.03764 0.785345,-0.165513 1.183594,-0.173828 0.748411,-0.146154 1.518278,-0.150995 2.277344,-0.107422 0.69078,0.01314 1.381436,0.0017 2.072265,0 0.293053,-0.03124 0.589521,0.02495 0.882813,0 0.04388,-0.01527 0.08893,-0.0298 0.132812,-0.04492 -0.01172,-0.0026 -0.0465,-0.0041 -0.03516,-0.0078 0.223835,-0.07155 0.406594,-0.108691 0.628906,-0.158203 0.587596,-0.135118 1.188993,0.0037 1.777344,-0.06836 0.626113,-0.03515 1.254199,-0.01613 1.880859,-0.03125 0.674525,-0.0084 1.348894,-2.65e-4 2.023438,0 0.402523,-0.01546 0.692417,0.02226 1.111328,0.132812 0.185242,0.04887 0.380831,0.154776 0.566406,0.222656 -0.416523,-0.14759 0.681772,0.100178 0.708985,0.105469 0.284583,0.04309 0.572093,0.05535 0.859375,0.05859 0.341159,-0.0058 0.682221,-0.0079 1.023437,-0.0059 0.61002,-0.0141 1.171855,-0.02631 1.763672,0.164062 0.01277,0.0041 0.02269,0.01468 0.03516,0.01953 -0.03555,-0.0456 0.135613,-0.02648 0.296875,-0.04102 0.161016,-0.01436 0.320658,-0.02561 0.482422,-0.02734 0.263146,0.0023 0.525894,0.01569 0.789063,0.0098 0.174175,-0.0017 0.349276,-0.002 0.523437,-0.002 0.241395,-1.62e-4 0.481258,-4.5e-5 0.722656,0 0.290434,1.9e-5 0.580675,0 0.871094,0 h 1.087891 0.572265 0.654297 0.433594 0.3125 0.308594 0.443359 0.369141 0.162109 0.148438 0.171875 0.06055 0.002 0.07031 0.09961 c 0.591635,-0.03897 0.856078,0.784166 0.824218,1.607422 0.0041,0.105232 -0.01,0.205166 -0.01563,0.308594 H 94.28723 L 93.754027,78.12143 c 0.445153,-0.09989 0.890785,-0.198935 1.335938,-0.298828 l 0.599609,2.677734 H 100.5 V 24.5 Z m 4.091796,52.611328 c -0.166462,-0.02863 -0.334838,-0.04414 -0.501953,-0.06836 0.154889,0.09503 0.289738,0.183448 0.470703,0.287109 h 0.002 c 0.01326,-0.08878 0.02069,-0.150904 0.0293,-0.21875 z m -0.501953,-0.06836 c -0.260231,-0.159666 -0.493805,-0.305695 -0.689453,-0.439453 -0.03576,0.110518 -0.06628,0.221043 -0.103516,0.332031 0.26504,0.03105 0.528993,0.06917 0.792969,0.107422 z m -0.689453,-0.439453 c 0.01073,-0.03317 0.02066,-0.06646 0.03125,-0.09961 -0.06165,-0.0068 -0.156659,-0.02499 -0.224609,-0.0332 0.05995,0.04235 0.126815,0.08732 0.193359,0.132813 z M 46.898438,28.64453 c -0.0128,-0.0504 -0.02658,-0.100456 -0.04102,-0.15039 -0.01129,0.0385 -0.0354,0.06429 -0.05859,0.08984 -0.03355,0.06398 -0.106468,0.17608 -0.207031,0.3125 v 0.0059 0.0957 c 0.110838,-0.105746 0.21856,-0.22803 0.306641,-0.353516 z m -0.09961,-0.06055 c 0.01436,-0.02739 0.02907,-0.05398 0.05273,-0.107422 -0.01787,-0.06095 -0.03069,-0.123281 -0.05078,-0.183593 -0.05251,0.02084 -0.135956,0.06974 -0.208984,0.109375 v 0.152344 0.132812 c 0.06186,-0.02398 0.115376,-0.03969 0.179687,-0.06641 0.01484,-0.0062 0.01719,-0.02592 0.02734,-0.03711 z m 0.458984,-0.773437 c 0.337217,-0.359838 -0.304628,-0.7168 -1.03125,-1.033203 -0.01261,0.03507 -0.02923,0.09677 -0.04297,0.136718 0.04772,0.09127 0.09623,0.181532 0.142578,0.273438 0.309934,0.20909 0.61882,0.418759 0.93164,0.623047 z m -1.03125,-1.033203 c 0.08123,-0.225846 0.130297,-0.404059 0.119141,-0.480469 -0.0936,-0.01023 -0.176581,-0.0093 -0.267578,-0.01563 0.204064,0.07274 0.196071,0.09878 -0.09375,0.126953 -0.0031,0.03758 -0.0032,0.06883 -0.0059,0.105469 0.03488,0.06578 0.06665,0.133279 0.101562,0.199219 0.05024,0.02118 0.09681,0.04282 0.146484,0.06445 z m -0.242187,-0.369141 c 0.0038,-0.04663 0.0034,-0.08277 0.0078,-0.130859 -0.0085,-4.72e-4 -0.0169,-0.0015 -0.02539,-0.002 -0.005,0.04558 -0.01065,0.09113 -0.01563,0.136718 0.0084,-8.33e-4 0.02515,-0.0031 0.0332,-0.0039 z m -0.0332,0.0039 c -0.006,5.93e-4 -0.01732,0.0033 -0.02344,0.0039 v 0.002 c 0.0065,0.01233 0.01301,0.02478 0.01953,0.03711 0.0016,-0.01429 0.0023,-0.02867 0.0039,-0.04297 z m 0.01563,-0.136718 c 0.0012,-0.01101 7.01e-4,-0.0222 0.002,-0.0332 -0.01026,-0.0035 -0.01054,-0.0061 -0.02148,-0.0098 -0.0012,0.01222 -0.0027,0.02847 -0.0039,0.04102 0.0078,3.66e-4 0.0156,0.0016 0.02344,0.002 z m 0.02539,0.002 c 0.02881,0.0016 0.05673,0.0019 0.08594,0.0039 -0.02653,-0.0095 -0.04782,-0.01898 -0.08398,-0.03125 -9.48e-4,0.01012 -9.54e-4,0.01729 -0.002,0.02734 z m -0.472657,-0.02148 c 0.0027,0.02234 0.0025,0.04544 0.01367,0.07813 l -0.002,-0.08008 c -0.0042,1.4e-4 -0.0075,0.0018 -0.01172,0.002 z m 0.01367,0.07813 0.002,0.07227 c 0.0034,-0.0022 0.0063,-0.0036 0.0098,-0.0059 3.61e-4,-0.01117 0.0016,-0.01999 0.002,-0.03125 -0.0038,-0.01028 -0.01049,-0.02581 -0.01367,-0.03516 z m 0.01172,0.06641 c -8.14e-4,0.02513 -0.003,0.04562 -0.0039,0.07031 0.01511,-0.0023 0.02634,-0.0037 0.04102,-0.0059 -0.01002,-0.0258 -0.01718,-0.04854 -0.02539,-0.07031 -0.0039,0.0026 -0.0078,0.0033 -0.01172,0.0059 z m -0.0039,0.07031 c -0.0014,2.15e-4 -0.0025,-2.16e-4 -0.0039,0 l 0.002,0.0078 h 0.002 c 1.01e-4,-0.0027 -1.01e-4,-0.0051 0,-0.0078 z m -0.002,0.0078 c -0.0049,-0.002 -0.0088,-0.0039 -0.01367,-0.0059 -0.04513,0.007 -0.07217,0.009 -0.121094,0.01758 -0.03059,0.01938 -0.06261,0.04037 -0.0918,0.05859 0.07328,0.04427 0.146198,0.08928 0.21875,0.134766 0.0028,-0.05586 0.0055,-0.109669 0.0078,-0.167969 z m -0.134765,0.01172 c 0.02146,-0.0136 0.04229,-0.02683 0.06445,-0.04102 -0.123946,-0.05081 -0.249443,-0.104283 -0.351562,-0.150391 -0.05215,0.01019 -0.102759,0.02131 -0.146485,0.03516 0.09848,0.05525 0.190237,0.121772 0.287109,0.179688 0.06111,-0.01238 0.0902,-0.01353 0.146485,-0.02344 z m 0.539062,-0.257812 c -0.0012,0.01368 -0.0027,0.02734 -0.0039,0.04102 h 0.002 c -0.0011,0.01074 0.005,-0.05213 0.0039,-0.04102 z m -0.0039,0.04102 c -0.01297,-6.05e-4 -0.02619,-0.0014 -0.03906,-0.002 -0.0011,0.02864 -0.0028,0.05729 -0.0039,0.08594 0.01001,0.019 0.02121,0.03763 0.03125,0.05664 0.004,-0.04685 0.0077,-0.09377 0.01172,-0.140624 z m -0.08789,-0.0059 c 9.38e-4,0.0018 9.54e-4,0.0041 0.002,0.0059 3.52e-4,-0.0069 -3.54e-4,0.0011 0,-0.0059 z m -1.076171,0.167969 c -0.05761,0.05003 -0.09342,0.108487 -0.08203,0.181641 0.0018,0.01127 0.006,0.02196 0.0078,0.0332 0.112616,-0.03229 0.209994,-0.05373 0.3125,-0.07813 z m 0.373047,0.216797 c -0.154112,0.09336 -0.282531,0.16755 -0.394532,0.226562 0.07799,0.361392 0.188128,0.714363 0.326172,1.060547 0.102317,0.06059 0.205048,0.127029 0.306641,0.201172 0.05605,-0.326361 0.101009,-0.729265 0.134765,-1.271484 z m 0.238281,1.488281 c -0.02024,0.117831 -0.03359,0.17878 -0.05273,0.273437 0.09029,0.0531 0.180941,0.10556 0.271485,0.158204 l -0.0078,-0.267578 c -0.07037,-0.05514 -0.1403,-0.112511 -0.210937,-0.164063 z m -0.05273,0.273437 c -0.02109,-0.0124 -0.04337,-0.02273 -0.06445,-0.03516 0.01636,0.03715 0.03225,0.07427 0.04883,0.111328 0.0052,-0.02475 0.01028,-0.04974 0.01563,-0.07617 z m -0.06445,-0.03516 c -0.0645,-0.146422 -0.130384,-0.29132 -0.189453,-0.439453 -0.265352,-0.157143 -0.534088,-0.240688 -0.80664,-0.216797 v 0.08203 c 0.332236,0.191001 0.66586,0.379641 0.996093,0.574218 z m -0.996093,-0.548828 v 0.501953 c 0.27403,0.155636 0.622651,0.318039 0.986328,0.46875 0.0098,-0.04648 0.02516,-0.135586 0.03711,-0.191406 -0.341906,-0.258324 -0.676665,-0.529972 -1.023438,-0.779297 z m 1.566406,0.666016 c -0.0074,0.06122 -0.01088,0.136577 -0.01758,0.201172 0.03313,0.019 0.06642,0.03775 0.09961,0.05664 7.79e-4,-0.0626 0.0043,-0.131771 0.0039,-0.191406 -0.02848,-0.0227 -0.05743,-0.04355 -0.08594,-0.06641 z m 0.5,0.05469 c -0.07426,0.04732 -0.137577,0.08509 -0.226563,0.146485 0.04429,0.03393 0.08855,0.05962 0.132813,0.0918 0.03316,-0.08885 0.06186,-0.154506 0.09375,-0.238281 z m -0.09375,0.238281 c -0.0043,0.01158 -0.0074,0.01969 -0.01172,0.03125 0.0117,-0.0039 0.02529,-0.0096 0.03711,-0.01367 -0.0085,-0.0061 -0.01692,-0.01142 -0.02539,-0.01758 z m -0.01172,0.03125 c -0.04179,0.01402 -0.0847,0.03018 -0.125,0.04297 0.02951,0.01653 0.05832,0.03436 0.08789,0.05078 0.01296,-0.03437 0.02405,-0.05881 0.03711,-0.09375 z m -0.125,0.04297 c -0.0099,-0.0056 -0.01937,-0.012 -0.0293,-0.01758 0.0012,0.0057 0.0028,0.01783 0.0039,0.02344 0.009,-0.0028 0.01632,-0.003 0.02539,-0.0059 z m -0.0293,-0.01758 c -0.0055,-0.02716 -0.0098,-0.08118 -0.01563,-0.111328 -0.02169,0.01512 -0.05555,0.04068 -0.07813,0.05664 0.03147,0.01783 0.06221,0.03697 0.09375,0.05469 z m -0.01563,-0.111328 c 0.01379,-0.0096 0.03539,-0.02784 0.04883,-0.03711 -0.02081,-0.01594 -0.04169,-0.02674 -0.0625,-0.04297 0.0043,0.0234 0.0095,0.0583 0.01367,0.08008 z M 45.40625,28.6875 c 0.03315,0.07279 0.06436,0.14615 0.09766,0.21875 0.04324,0.01753 0.07124,0.02991 0.113282,0.04687 l -0.0039,-0.119141 c -0.06968,-0.04762 -0.138732,-0.09632 -0.207031,-0.146484 z m 0.513672,0.154297 c -0.0358,0.02563 -0.08121,0.06019 -0.119141,0.08789 -2.65e-4,0.0071 2.65e-4,0.01434 0,0.02148 0.03864,-0.01043 0.07867,-0.02351 0.119141,-0.03516 7.26e-4,-0.02526 -5.29e-4,-0.04942 0,-0.07422 z m -0.119141,0.121094 c -7.97e-4,0.0215 -0.0031,0.04296 -0.0039,0.06445 0.04107,0.01661 0.08049,0.0311 0.119141,0.04687 7.96e-4,-0.01796 -6.99e-4,-0.03304 0,-0.05078 -0.03742,-0.02205 -0.07837,-0.03746 -0.115235,-0.06055 z m 0.728516,0.01953 c -0.0096,0.01351 -0.0071,0.0085 -0.01758,0.02344 -0.02105,0.01975 -0.04376,0.03196 -0.06445,0.05078 0.01542,0.0083 0.02948,0.01906 0.04492,0.02734 0.02627,-0.02131 0.0527,-0.04488 0.08008,-0.07031 -0.01456,-0.0083 -0.02841,-0.02256 -0.04297,-0.03125 z m 0.0625,0.04492 v 0.05469 c 0.01938,-0.0142 0.05548,-0.01962 0.04102,-0.02734 -0.01352,-0.0072 -0.0275,-0.01979 -0.04102,-0.02734 z m -0.880859,0.332031 c 0.02794,0.04718 0.123068,0.04382 0.166015,0.0078 -0.02528,-8.06e-4 -0.06175,-0.0021 -0.0918,-0.0039 v 0.002 c -0.0099,-5.23e-4 -0.01387,-0.0014 -0.02344,-0.002 -3.78e-4,0.0083 -0.02566,0.0063 -0.02539,-0.002 -0.01001,-5.35e-4 -0.01572,-0.0014 -0.02539,-0.002 z M 46.527344,43.0332 c 5.3e-5,0.0077 -0.0015,0.0739 -0.002,0.134766 0.0015,0.0043 0.0024,0.0035 0.0039,0.0078 -10e-4,-0.06988 -0.002,-0.149914 -0.002,-0.142578 z m -0.533203,0.08008 c 0.217305,0.327909 0.378547,0.552872 0.501953,0.714844 -0.06699,-0.201277 -0.155834,-0.393888 -0.285156,-0.556641 -0.04055,-0.05103 -0.132041,-0.104724 -0.216797,-0.158203 z m 0.603515,1.140625 c -0.02668,0.0897 -0.11157,0.291363 -0.160156,0.410156 0.07407,-0.04029 0.135426,-0.06229 0.162109,-0.04102 0.01586,-0.09815 0.01825,-0.210674 0.0039,-0.34375 -9.17e-4,-0.0085 -0.0048,-0.01687 -0.0059,-0.02539 z m -2.257812,1.486328 c 0.02653,0.0491 0.01244,0.02782 0.04102,0.08008 0.08757,0.03885 0.340623,0.174259 0.263672,0.117188 -0.117872,-0.08743 -0.20574,-0.135937 -0.304687,-0.197266 z m 6.324218,4.1875 c -0.01642,0.01005 -0.02436,0.03072 -0.03906,0.04297 l 0.002,0.002 c 0.02196,-0.02179 0.05357,-0.05503 0.03711,-0.04492 z m -0.002,0.0293 c -0.01157,0.007 -0.02183,0.01456 -0.0332,0.02148 0.0011,0.0015 0.0028,0.0043 0.0039,0.0059 0.01116,-0.01058 0.04784,-0.03848 0.0293,-0.02734 z m 3.13086,6.400391 c -0.0034,-0.0094 -0.01745,0.01115 -0.02539,0.01758 -0.0085,0.0067 -0.03039,0.02878 -0.04687,0.04687 0.03893,-0.01661 0.0839,-0.03264 0.07227,-0.06445 z m -0.148438,0.0625 c -0.0061,0.01324 -0.01346,0.02582 -0.01953,0.03906 0.0042,-0.0017 0.0075,-0.0022 0.01172,-0.0039 0.0036,-0.01273 -6.95e-4,-0.01392 0.0078,-0.03516 z" />
    </clipPath>
    <clipPath
       clipPathUnits="userSpaceOnUse"
       id="clipPath1188">
      <path
         id="path1190"
         style="fill:#ff0000;fill-opacity:1;fill-rule:nonzero;stroke:none;stroke-width:0.264583"
         d="m 22.396049,21.073132 v 4.155819 h 4.15582 v -4.155819 h -1.284678 l 0.07803,0.347265 c -0.11778,0.02643 -0.235687,0.05264 -0.353467,0.07906 l -0.0956,-0.42633 z" />
    </clipPath>
    <clipPath
       clipPathUnits="userSpaceOnUse"
       id="clipPath1200">
      <path
         id="path1202"
         style="fill:#ff0000;fill-opacity:1;fill-rule:nonzero;stroke:none;stroke-width:0.264583"
         d="M 39.555208,10.451042 V 25.267708 H 54.371875 V 10.451042 Z m 3.697965,0.969449 0.850596,5.3e-4 v 0.382405 c 0,0.03353 0.008,0.09887 0,0.134359 -0.01574,0.06936 -0.03348,0.138589 -0.05013,0.207739 -0.0094,0.02124 -0.02252,0.04097 -0.02791,0.06356 -0.0011,0.0049 0.0095,0.0063 0.0098,0.01137 0.0013,0.01911 -0.0043,0.03827 -0.0057,0.05736 -0.006,0.08059 -0.0069,0.161633 -0.0098,0.242362 -0.0056,0.167316 -0.02408,0.333699 -0.03411,0.500745 -0.01455,0.16992 -0.03048,0.339382 -0.04289,0.50953 -0.01095,0.218409 -0.04521,0.434989 -0.06304,0.652673 -0.0087,0.158814 -0.0204,0.317215 -0.03049,0.47594 -0.01286,0.197331 -0.02093,0.394988 -0.02222,0.592729 5.29e-4,0.127425 0.0013,0.254979 0.0016,0.382405 1.9e-5,0.01683 -0.0051,0.03459 0,0.05064 0.0029,0.0091 0.0043,-0.01861 0.0067,-0.02791 0.07929,0.186084 0.03626,0.401925 0.03256,0.597379 -0.0072,0.135992 0.01479,0.273499 0.0036,0.409278 -0.0053,0.06482 -0.01524,0.129693 -0.02273,0.194303 -0.01955,0.106723 -0.02117,0.131468 -0.05116,0.235128 -0.0069,0.02386 -0.03969,0.08848 -0.02894,0.12299 0.0019,0.121219 -0.02777,0.239851 -0.03617,0.360184 -0.0027,0.140649 -0.02748,0.280105 -0.02842,0.420646 0.0044,0.13178 0.0062,0.263483 0.0047,0.395325 -0.0011,0.113415 -5.6e-5,0.227128 0,0.340548 -8.2e-5,0.149571 -1.9e-5,0.29898 0,0.448551 0.01953,0.07725 -0.03508,0.233713 0.01085,0.298173 0.004,0.0057 -0.006,-0.02609 -0.0011,-0.02119 0.0079,0.0077 0.0076,0.02065 0.01138,0.03101 0.05231,0.0855 0.02363,0.182652 0.04031,0.272852 0.0016,0.0089 -2.64e-4,-0.01829 -5.29e-4,-0.02739 -5.29e-4,-0.0035 -0.0019,-0.01384 -0.0011,-0.01033 0.01598,0.07742 0.02318,0.157247 0.04341,0.233577 0.0168,0.05768 0.02718,0.11725 0.04083,0.1757 0.0055,0.02368 0.0053,0.03023 0.0062,0.03927 0.01495,0.03283 0.02471,0.05449 0.04651,0.09974 0.01138,0.02366 0.004,0.08799 0.01498,0.121956 0.02474,0.100766 0.04829,0.202355 0.06149,0.305408 0.0021,0.125842 3e-6,0.0246 0.0093,0.159163 0.0021,0.03845 0.0011,0.07675 5.3e-4,0.115239 0.01167,-2.04e-4 0.02347,0.0016 0.03514,5.29e-4 0.07836,-0.0023 0.156758,-0.0035 0.23513,-0.001 0.04557,-9.52e-4 0.117157,-5.56e-4 0.171048,-5.29e-4 0.133588,3.1e-5 0.266906,2.3e-5 0.400492,0 0.09118,10e-7 0.182705,10e-7 0.273886,0 0.120123,-1e-6 0.240061,0 0.360185,0 h 0.361217 c 0.184206,0.0025 0.368567,-0.01786 0.543118,0.04909 0.0094,-0.002 0.01439,-0.0038 0.03566,-0.0057 0.05739,-0.0051 0.114453,-0.0074 0.172082,-0.0078 0.158906,0.0035 0.318037,0.0039 0.476975,0.0026 0.136652,-3.97e-4 0.27314,0 0.409792,0 0.111004,-3.7e-5 0.222314,-2e-5 0.333314,0 0.04293,-0.01546 0.09208,0.01278 0.135393,0 -0.01275,-0.0023 -0.02548,-0.0049 -0.03824,-0.0072 -0.0032,-3.17e-4 -0.01291,4.24e-4 -0.0098,-5.29e-4 0.181517,-0.05399 0.121732,-0.04235 0.281635,-0.05271 0.2886,0.0252 -0.03286,-0.0055 0.160714,0.0186 0.0016,2e-4 -0.0053,-0.0035 -0.0036,-0.0036 0.01455,-0.0015 0.02933,-0.0017 0.04393,-0.0026 0.175212,-0.05324 0.358108,-0.05451 0.538467,-0.03566 0.0036,-0.0042 0.0051,-0.01122 0.01035,-0.01292 0.08095,-0.02695 0.188074,-0.03489 0.274402,-0.04651 0.09139,-0.01716 0.200528,-0.002 0.284739,-0.02687 0.138742,-0.04784 0.263004,-0.08606 0.402559,-0.06666 -0.0031,-6.88e-4 0.01201,-0.0011 0.07338,-0.0036 0.04011,-0.0016 0.07043,-6.09e-4 0.112138,-5.29e-4 0.16051,0.0018 0.311693,0.06525 0.46354,0.110587 0.0089,0.0088 0.171624,0.04035 0.08216,0.02325 0.109291,-0.007 0.231296,0.0024 0.345715,0.01809 0.08239,0.0076 0.166618,0.01747 0.249597,0.01447 0.104905,-0.0024 0.209785,-0.0021 0.314711,-0.0016 0.0469,1.66e-4 0.09365,-5e-6 0.14056,0 0.08758,5e-5 0.175443,5e-6 0.263033,0 0.01061,-1e-6 0.02273,0.006 0.03152,0 0.0051,-0.0035 -0.01802,-0.0095 -0.01291,-0.01292 0.01939,-0.0129 0.04395,-0.01522 0.06615,-0.02222 0.126267,-0.03992 0.151119,-0.03699 0.300757,-0.03979 0.0019,-1.3e-4 0.0076,2.65e-4 0.0057,0 -0.07967,-0.0117 0.07044,-0.0081 0.09095,-0.0078 0.04595,4.76e-4 0.09201,-1.88e-4 0.137977,-5.29e-4 0.05441,-8.6e-5 0.108887,4.76e-4 0.163296,5.29e-4 -0.0019,-0.0025 0.01593,-0.0069 0.02429,-0.0093 0.03228,-0.0091 0.06459,-0.01921 0.09767,-0.02481 0.05239,-0.0088 0.0993,-0.0079 0.145211,-0.0021 0.0033,-3.71e-4 0.0065,-0.0012 0.0098,-0.0016 0.0217,-0.0019 0.04385,0.0013 0.06563,0.0021 0.08299,-0.116702 0.236498,-0.08985 0.391189,0.0047 0.05135,0.007 0.101487,0.02553 0.148829,0.05219 0.09956,0.0042 0.198934,0.02598 0.192235,0.104903 -0.0019,0.02115 -0.0064,0.04144 -0.01035,0.06201 0.04496,0.06422 0.0771,0.135712 0.0863,0.207739 0.0016,0.01923 0.0024,0.03238 0.0036,0.04858 0.02106,0.06747 0.0177,0.124314 -0.02997,0.153479 -0.124722,0.0763 -0.239961,0.121935 -0.335378,0.150895 -0.0218,0.03727 -0.04401,0.07449 -0.06253,0.112654 0.02278,0.0024 0.04847,0.0038 0.06666,0.0088 0.0011,3.17e-4 0.01098,-0.0014 0.01497,-0.0016 0.02727,-0.0042 0.05478,-0.0086 0.08217,-0.01189 0.0075,-8.99e-4 -0.0149,0.004 -0.02222,0.0057 -0.01656,0.0038 -0.0439,0.0057 -0.05994,0.0062 -0.01304,0.002 -0.02622,0.0038 -0.03928,0.0057 -0.02416,-0.007 -0.02326,-0.0063 -0.04341,-0.01189 -0.0013,0.0026 -0.0029,0.0051 -0.0041,0.0078 -0.01027,-4.23e-4 -0.02074,-6.61e-4 -0.03101,-0.001 l 5.29e-4,-0.0124 c -0.05999,-0.0054 -0.11725,-0.01314 -0.147277,-0.04082 -0.01722,-1.2e-5 -0.03446,-5.8e-5 -0.05168,0 -0.01717,3.1e-5 -0.03446,0.0035 -0.05116,-5.29e-4 -0.0384,0.0012 -0.07687,-7.4e-5 -0.115239,-0.0021 -0.0057,8.2e-4 -0.01122,0.0034 -0.01704,0.0036 -0.03135,9.52e-4 -0.03875,-0.0031 -0.05943,-0.0036 -0.0036,8.73e-4 0.0013,7.1e-5 -0.0026,0.001 -0.05972,0.01441 -0.120608,0.02368 -0.180867,0.03566 -0.07419,2.6e-5 -0.148534,-7.4e-5 -0.222726,0 -0.05258,3.7e-4 -0.105037,-7.15e-4 -0.157612,-0.0021 0.0092,-3.97e-4 0.03649,-0.0051 0.02739,-0.0036 -0.01278,0.0021 -0.02588,0.0021 -0.03876,0.0036 -2.65e-4,3e-6 -7.94e-4,-2e-6 -0.0011,0 -0.03314,0.0039 -0.06636,0.0064 -0.09974,0.0062 -0.116533,0.03607 -0.232714,0.08251 -0.356566,0.07855 -0.08764,5e-6 -0.175395,4.9e-5 -0.263033,0 -0.04851,-7e-6 -0.09722,1.96e-4 -0.14573,0 -0.102253,-6.09e-4 -0.204202,-8.47e-4 -0.30644,0.0016 -0.123521,-7.67e-4 -0.247438,-0.0071 -0.370004,-0.02222 -0.07785,-0.01105 -0.156437,-0.01663 -0.235127,-0.01033 -0.109374,-0.0063 -0.21504,-0.02124 -0.318844,-0.0584 -0.03599,-0.01076 -0.202406,-0.05356 -0.209807,-0.06718 -0.0035,-0.0066 0.02769,-0.004 0.02119,-0.0078 -0.01016,-0.0059 -0.02339,-3.18e-4 -0.03514,-5.29e-4 -0.07725,-5.82e-4 -0.155207,0.0058 -0.232026,0.001 -0.01122,0.0037 -0.02236,0.0072 -0.03359,0.01085 -0.03846,0.01156 -0.07729,0.02307 -0.115755,0.03462 -0.124132,0.02912 -0.249574,0.03882 -0.376719,0.04393 -0.163378,0.02042 -0.322559,0.06959 -0.489376,0.0615 -0.13621,-0.0169 -0.262266,0.01389 -0.397394,0.03979 -0.07304,0.0039 -0.170579,0.01575 -0.240294,-0.0093 -0.01318,0.0059 -0.0259,0.01313 -0.03979,0.01705 -0.122192,0.03447 -0.217011,0.04654 -0.337447,0.04134 -0.11095,-2e-5 -0.222364,-3.6e-5 -0.333314,0 -0.134334,0 -0.268224,-3.44e-4 -0.402558,0 -0.161253,0.0013 -0.322988,0.0011 -0.484209,-0.0026 -0.247351,-0.0041 -0.292579,0.0397 -0.454237,-0.03566 h -0.296621 -0.361217 c -0.120121,-10e-7 -0.240067,-10e-7 -0.360186,0 -0.09114,1e-6 -0.182229,1e-6 -0.27337,0 -0.133776,2.3e-5 -0.267745,3.1e-5 -0.401524,0 -0.06751,-3.5e-5 -0.135061,3.44e-4 -0.202572,0 -0.03601,-7.41e-4 -0.113327,-7.68e-4 -0.161748,0.001 -0.03139,0.0012 -0.440598,0.01159 -0.185518,-0.04237 0.02529,-0.147242 0.156406,-0.357342 0.189137,-0.509013 -0.696359,0.61667 -0.731268,0.559608 -0.62942,0.184485 -0.05275,0.02165 -0.105341,0.04355 -0.158131,0.06511 0.03984,0.05616 0.08667,0.12164 0.104387,0.151412 0.006,0.01014 -0.01524,-0.01829 -0.02273,-0.02739 -0.04891,-0.05976 -0.0085,-0.01325 -0.106455,-0.114205 0.0082,-0.0034 0.01656,-0.0065 0.02479,-0.0098 -0.132106,-0.186231 -0.307898,-0.452896 -0.14211,-0.549321 2.64e-4,-0.01942 2.49e-4,-0.03899 5.29e-4,-0.05839 -0.0019,-0.03264 -0.01476,-0.313752 -0.0072,-0.131258 -0.0026,-0.01289 -0.0051,-0.02588 -0.0078,-0.03876 -0.01116,-0.05399 -0.02096,-0.108191 -0.03617,-0.161231 -0.01066,-0.0501 -0.0168,-0.09919 -0.02273,-0.148828 -0.0062,-0.0059 -0.01299,-0.01111 -0.01913,-0.01705 -0.02508,-0.02427 -0.04541,-0.225965 -0.06666,-0.270785 -0.02,-0.09226 -0.03337,-0.185629 -0.05271,-0.278019 -7.94e-4,-0.0059 -0.02635,-0.159787 -0.0021,-0.09715 -0.06759,-0.191716 -0.07999,-0.388549 -0.07028,-0.590661 -1.9e-5,-0.14947 -8.2e-5,-0.299082 0,-0.448552 -5.8e-5,-0.11673 -5.29e-4,-0.233641 5.29e-4,-0.350366 0.0016,-0.135849 -0.0021,-0.271386 -0.0047,-0.40721 0.0054,-0.158032 0.02373,-0.315392 0.03152,-0.473356 0.01111,-0.116754 0.03364,-0.231902 0.03514,-0.349333 0.0044,-0.04139 0.0075,-0.08334 0.01344,-0.12454 0.01497,-0.104401 0.06072,-0.180645 0.07235,-0.284737 0.03104,-0.167793 0.0051,-0.33969 0.01138,-0.50953 0.0051,-0.189037 -1.33e-4,-0.06872 0.0083,-0.201021 0.0016,-0.02709 0.0016,-0.05415 0.0047,-0.08113 7.94e-4,-0.0065 0.02695,0.05744 0.01704,0.01912 -0.0087,-0.03366 -0.02307,-0.06539 -0.03462,-0.09818 -0.01167,-0.06295 -0.02574,-0.125806 -0.03514,-0.189136 -0.0069,-0.04682 1.8e-4,-0.09478 0,-0.14211 -5.29e-4,-0.09864 -0.0013,-0.196949 -0.0016,-0.295589 0.0016,-0.213705 0.01019,-0.427525 0.02429,-0.640788 0.01056,-0.165417 0.02244,-0.330612 0.03204,-0.496094 0.01945,-0.213512 0.04937,-0.426068 0.06201,-0.640271 0.0122,-0.166853 0.02751,-0.333118 0.04186,-0.499711 0.0099,-0.159933 0.02667,-0.319417 0.03307,-0.479557 0.0076,-0.208784 0.0084,-0.427177 0.0832,-0.625285 z m -0.110588,9.552905 c -2.65e-4,0.02475 -0.0011,0.04967 -0.0011,0.07441 2.64e-4,0.02565 5.29e-4,0.05082 5.29e-4,0.07648 -1.1e-5,0.01106 0,0.02252 0,0.03359 -2.65e-4,0.02714 0.0013,0.04416 0.0021,0.0646 0.01275,3.44e-4 0.02548,7.14e-4 0.03824,0.001 0.116149,-0.03168 0.232444,-0.06216 0.348816,-0.09302 0.01325,-0.0498 0.02437,-0.08456 0.03721,-0.138493 0.01167,-0.0057 0.02347,-0.0057 0.03514,-0.0098 -0.244708,-0.05563 -0.3883,-0.05104 -0.460955,-0.0088 z m 0.0016,0.249081 c 1.42e-4,0.0036 -1.86e-4,0.008 0,0.01137 0.01085,-0.003 0.02172,-0.0058 0.03256,-0.0088 -0.01183,-5.03e-4 -0.0204,-0.0022 -0.03256,-0.0026 z m 0,0.01137 c -7.94e-4,1.88e-4 -0.0013,3.18e-4 -0.0021,5.29e-4 -0.0019,5.03e-4 -0.0019,0.0057 0,0.0057 7.94e-4,2.8e-5 0.0019,-2.9e-5 0.0026,0 -1.17e-4,-0.0018 -5.29e-4,-0.0043 -5.29e-4,-0.0062 z m 5.29e-4,0.0062 c 9.5e-5,0.0015 -1.09e-4,0.0037 0,0.0052 0.03134,-0.0014 0.06269,-0.0014 0.09405,-0.0026 -0.03136,-9.52e-4 -0.06269,-0.0016 -0.09405,-0.0026 z m 0,0.0052 c -7.94e-4,3.8e-5 -0.0019,-3.7e-5 -0.0026,0 -0.0055,2.39e-4 -0.0055,0.01667 0,0.01654 0.0011,-2.4e-5 0.0021,2.4e-5 0.0031,0 -5.3e-4,-0.0043 -1.75e-4,-0.01186 -5.3e-4,-0.01654 z m 5.29e-4,0.01654 c 0.01402,0.133339 0.09472,0.07879 0.344681,0.02222 0.0024,-0.0086 0.0048,-0.01806 0.0072,-0.02687 -0.0085,-0.0014 -0.01656,-0.0028 -0.02532,-0.0041 -0.108921,0.0026 -0.217673,0.0063 -0.326594,0.0088 z m 0.344681,0.02222 c -0.01569,0.0557 -0.03435,0.126939 -0.04702,0.173633 0.11376,-0.04669 0.227687,-0.09265 0.341583,-0.139009 -0.05858,-0.01541 -0.121024,-0.03147 -0.21911,-0.05013 -0.03005,0.0057 -0.04946,0.0096 -0.07545,0.0155 z m 9.762712,0.38499 c 0.004,2e-6 0.0079,-2e-6 0.01188,0 -0.04969,-0.01506 0.02069,-0.02053 0.139528,-0.04599 l 0.0016,-0.04237 c -0.03301,-0.0454 -0.08541,-0.09763 -0.146246,-0.146761 -0.01733,0.06279 -0.02752,0.126499 -0.02687,0.192236 1.85e-4,0.01873 0.0084,0.03208 0.02016,0.04289 z m 0.0067,-0.235128 c 0.0077,-0.02795 0.02037,-0.05512 0.03049,-0.08268 -0.08905,-0.01993 -0.156782,-0.03605 -0.276471,-0.05995 -0.0029,-5.82e-4 -0.0028,-0.0045 -0.0052,-0.0057 0.0032,0.02219 0.0031,0.03924 0.0072,0.06304 -0.0059,-0.08213 0.125624,-0.01026 0.243911,0.08527 z m 0.03049,-0.08268 c 0.0403,0.009 0.09038,0.01941 0.125055,0.02739 l 0.0155,-0.351916 c -0.04933,0.107776 -0.100481,0.215234 -0.14056,0.324528 z m 0.125055,0.02739 -0.0093,0.202055 c 0.009,0.01239 0.02035,0.0257 0.02532,0.03617 0.02535,-0.006 0.03758,-0.006 0.06718,-0.01499 0.03585,-0.06127 0.07171,-0.122573 0.109037,-0.183451 -0.05251,-0.01137 -0.115136,-0.02206 -0.192238,-0.03979 z m 0.192238,0.03979 c 0.229865,0.04977 0.268558,0.03497 0.256313,-0.120922 -0.0176,-0.05634 -0.05785,-0.119359 -0.107485,-0.184485 -0.03248,0.106476 -0.08822,0.206535 -0.148828,0.305407 z M 53.264502,21.669 c 0.01918,0.0058 0.08204,0.0229 0.135393,0.03721 l 0.0016,-0.03566 c -0.0088,2.03e-4 -0.01752,5.56e-4 -0.02997,-0.0016 -0.01505,0 -0.02991,2e-6 -0.04496,0 -0.0199,-10e-7 -0.04004,1e-6 -0.05994,0 z m 0.135393,0.03721 v 0.0036 c 0.0093,8.46e-4 0.01722,0.0027 0.02635,0.0036 -0.0118,-0.0032 -0.01598,-0.0045 -0.02635,-0.0072 z m 0.04289,-0.884184 c -0.02368,-0.0032 -0.04756,-0.0055 -0.07131,-0.0036 -0.01503,0 -0.02992,2e-6 -0.04496,0 -0.01979,-10e-7 -0.03963,2e-6 -0.05943,0 -0.02252,-7e-6 -0.04517,-7.5e-5 -0.0677,0 -0.02434,5.4e-5 -0.04851,-3.43e-4 -0.07286,0 -0.02286,6.88e-4 -0.04707,0.0029 -0.07183,-10e-4 -0.0011,-2.4e-5 -0.0021,3.3e-5 -0.0031,0 -0.0031,0.0044 -0.0069,0.0075 -0.0098,0.0124 0.01461,0.004 0.02937,0.0076 0.04392,0.01292 -0.01535,-0.0048 -0.0304,-0.0084 -0.04547,-0.01085 -0.04167,0.07087 -0.05842,0.189527 -0.04238,0.364319 0.01161,-0.03268 0.03023,-0.06467 0.05219,-0.077 0.118251,-0.06635 0.249603,-0.103519 0.382405,-0.136426 l 0.0041,-0.100252 c -0.02238,0.0033 -0.04462,0.0072 -0.06718,0.0088 -0.02111,0.0015 0.04095,-0.01133 0.06201,-0.01344 0.0013,-1.4e-4 0.0042,-3.7e-4 0.0057,-5.29e-4 v -0.0052 c 0.01503,7.14e-4 0.02993,0.0019 0.04496,0.0026 0.0117,-7.94e-4 0.02101,-0.0016 0.0341,-0.0021 -0.02431,-0.01798 -0.04867,-0.03555 -0.07338,-0.05064 z m -10.323454,-0.34369 c 0.08612,0.142467 0.07458,0.150931 0.258384,0.22686 -0.08619,-0.07562 -0.173297,-0.150049 -0.258384,-0.22686 z m 6.765996,0.297657 c 0.03459,0.0051 0.06942,0.01088 0.106453,0.02429 -0.02053,-0.006 -0.04065,-0.01329 -0.0615,-0.01809 -0.01865,-0.0043 -0.03672,-0.0054 -0.04496,-0.0062 z m 3.605983,0.104903 c -0.01159,0.03275 -0.02682,0.0648 -0.04083,0.09715 0.04995,-0.0122 0.0996,-0.02498 0.149345,-0.03721 -0.01519,-0.0135 -0.02976,-0.02766 -0.04547,-0.04031 -0.02093,-0.0069 -0.04206,-0.01304 -0.06305,-0.01964 z m -1.161172,0.81132 c -0.0024,6.61e-4 -0.0048,0.0014 -0.0072,0.0021 7.94e-4,-5.1e-5 0.0019,5.2e-5 0.0026,0 0.0016,-10e-5 0.0062,-0.0025 0.0047,-0.0021 z m -6.420279,0.0078 c 0.124154,0.09799 0.131366,0.09808 0.180867,0.103869 -0.04962,-0.02521 -0.102597,-0.05433 -0.180867,-0.103869 z m 2.339909,0.07286 c -0.01939,0.0069 -0.03817,0.01543 -0.05685,0.02429 0.0063,-9.52e-4 0.01259,-0.0015 0.0186,-0.0036 0.01368,-0.0048 0.05189,-0.02557 0.03824,-0.02067 z" />
    </clipPath>
    <clipPath
       clipPathUnits="userSpaceOnUse"
       id="clipPath1210">
      <path
         id="path1212"
         style="fill:#ff0000;fill-opacity:1;fill-rule:nonzero;stroke:none;stroke-width:0.264583"
         d="m 43.523958,6.4822916 v 4.9381994 l 0.579811,5.3e-4 v 0.382405 c 0,0.03353 0.008,0.09887 0,0.134359 -0.01574,0.06936 -0.03348,0.138589 -0.05013,0.207739 -0.0094,0.02124 -0.02252,0.04097 -0.02791,0.06356 -0.0011,0.0049 0.0095,0.0063 0.0098,0.01137 0.0013,0.01911 -0.0043,0.03827 -0.0057,0.05736 -0.006,0.08059 -0.0069,0.161633 -0.0098,0.242362 -0.0056,0.167316 -0.02408,0.333699 -0.03411,0.500745 -0.01455,0.16992 -0.03048,0.339382 -0.04289,0.50953 -0.01095,0.218409 -0.04521,0.434989 -0.06304,0.652673 -0.0087,0.158814 -0.0204,0.317215 -0.03049,0.47594 -0.01286,0.197331 -0.02093,0.394988 -0.02222,0.592729 5.29e-4,0.127425 0.0013,0.254979 0.0016,0.382405 1.9e-5,0.01683 -0.0051,0.03459 0,0.05064 0.0029,0.0091 0.0043,-0.01861 0.0067,-0.02791 0.07929,0.186084 0.03626,0.401925 0.03256,0.597379 -0.0072,0.135992 0.01479,0.273499 0.0036,0.409278 -0.0053,0.06482 -0.01524,0.129693 -0.02273,0.194303 -0.01955,0.106723 -0.02117,0.131468 -0.05116,0.235128 -0.0069,0.02386 -0.03969,0.08848 -0.02894,0.12299 0.0019,0.121219 -0.02777,0.239851 -0.03617,0.360184 -0.0027,0.140649 -0.02748,0.280105 -0.02842,0.420646 0.0044,0.13178 0.0062,0.263483 0.0047,0.395325 -0.0011,0.113415 -5.6e-5,0.227128 0,0.340548 -8.2e-5,0.149571 -1.9e-5,0.29898 0,0.448551 0.01953,0.07725 -0.03508,0.233713 0.01085,0.298173 0.004,0.0057 -0.006,-0.02609 -0.0011,-0.02119 0.0079,0.0077 0.0076,0.02065 0.01138,0.03101 0.05231,0.0855 0.02363,0.182652 0.04031,0.272852 0.0016,0.0089 -2.64e-4,-0.01829 -5.29e-4,-0.02739 -5.29e-4,-0.0035 -0.0019,-0.01384 -0.0011,-0.01033 0.01598,0.07742 0.02318,0.157247 0.04341,0.233577 0.0168,0.05768 0.02718,0.11725 0.04083,0.1757 0.0055,0.02368 0.0053,0.03023 0.0062,0.03927 0.01495,0.03283 0.02471,0.05449 0.04651,0.09974 0.01138,0.02366 0.004,0.08799 0.01498,0.121956 0.02474,0.100766 0.04829,0.202355 0.06149,0.305408 0.0021,0.125842 3e-6,0.0246 0.0093,0.159163 0.0021,0.03845 0.0011,0.07675 5.3e-4,0.115239 0.01167,-2.04e-4 0.02347,0.0016 0.03514,5.29e-4 0.07836,-0.0023 0.156758,-0.0035 0.23513,-0.001 0.04557,-9.52e-4 0.117157,-5.56e-4 0.171048,-5.29e-4 0.133588,3.1e-5 0.266906,2.3e-5 0.400492,0 0.09118,10e-7 0.182705,10e-7 0.273886,0 0.120123,-1e-6 0.240061,0 0.360185,0 h 0.361217 c 0.184206,0.0025 0.368567,-0.01786 0.543118,0.04909 0.0094,-0.002 0.01439,-0.0038 0.03566,-0.0057 0.05739,-0.0051 0.114453,-0.0074 0.172082,-0.0078 0.158906,0.0035 0.318037,0.0039 0.476975,0.0026 0.136652,-3.97e-4 0.27314,0 0.409792,0 0.111004,-3.7e-5 0.222314,-2e-5 0.333314,0 0.04293,-0.01546 0.09208,0.01278 0.135393,0 -0.01275,-0.0023 -0.02548,-0.0049 -0.03824,-0.0072 -0.0032,-3.17e-4 -0.01291,4.24e-4 -0.0098,-5.29e-4 0.181517,-0.05399 0.121732,-0.04235 0.281635,-0.05271 0.2886,0.0252 -0.03286,-0.0055 0.160714,0.0186 0.0016,2e-4 -0.0053,-0.0035 -0.0036,-0.0036 0.01455,-0.0015 0.02933,-0.0017 0.04393,-0.0026 0.175212,-0.05324 0.358108,-0.05451 0.538467,-0.03566 0.0036,-0.0042 0.0051,-0.01122 0.01035,-0.01292 0.08095,-0.02695 0.188074,-0.03489 0.274402,-0.04651 0.09139,-0.01716 0.200528,-0.002 0.284739,-0.02687 0.138742,-0.04784 0.263004,-0.08606 0.402559,-0.06666 -0.0031,-6.88e-4 0.01201,-0.0011 0.07338,-0.0036 0.04011,-0.0016 0.07043,-6.09e-4 0.112138,-5.29e-4 0.16051,0.0018 0.311693,0.06525 0.46354,0.110587 0.0089,0.0088 0.171624,0.04035 0.08216,0.02325 0.109291,-0.007 0.231296,0.0024 0.345715,0.01809 0.08239,0.0076 0.166618,0.01747 0.249597,0.01447 0.104905,-0.0024 0.209785,-0.0021 0.314711,-0.0016 0.0469,1.66e-4 0.09365,-5e-6 0.14056,0 0.08758,5e-5 0.175443,5e-6 0.263033,0 0.01061,-1e-6 0.02273,0.006 0.03152,0 0.0051,-0.0035 -0.01802,-0.0095 -0.01291,-0.01292 0.01939,-0.0129 0.04395,-0.01522 0.06615,-0.02222 0.126267,-0.03992 0.151119,-0.03699 0.300757,-0.03979 0.0019,-1.3e-4 0.0076,2.65e-4 0.0057,0 -0.07967,-0.0117 0.07044,-0.0081 0.09095,-0.0078 0.04595,4.76e-4 0.09201,-1.88e-4 0.137977,-5.29e-4 0.05441,-8.6e-5 0.108887,4.76e-4 0.163296,5.29e-4 -0.0019,-0.0025 0.01593,-0.0069 0.02429,-0.0093 0.03228,-0.0091 0.06459,-0.01921 0.09767,-0.02481 0.05239,-0.0088 0.0993,-0.0079 0.145211,-0.0021 0.0033,-3.71e-4 0.0065,-0.0012 0.0098,-0.0016 0.0217,-0.0019 0.04385,0.0013 0.06563,0.0021 0.08299,-0.116702 0.236498,-0.08985 0.391189,0.0047 0.05135,0.007 0.101487,0.02553 0.148829,0.05219 0.09956,0.0042 0.198934,0.02598 0.192235,0.104903 -0.0019,0.02115 -0.0064,0.04144 -0.01035,0.06201 0.04496,0.06422 0.0771,0.135712 0.0863,0.207739 0.0016,0.01923 0.0024,0.03238 0.0036,0.04858 -0.0176,-0.05634 -0.05785,-0.119359 -0.107484,-0.184485 -0.01953,0.06404 -0.04877,0.125499 -0.08114,0.186035 h 0.188608 4.477248 V 6.4822916 Z m 9.918774,14.3396934 c -0.02368,-0.0032 -0.04756,-0.0055 -0.07131,-0.0036 -0.01503,0 -0.02992,2e-6 -0.04496,0 -0.01979,-1e-6 -0.03963,1e-6 -0.05943,0 -0.02252,-8e-6 -0.04517,-7.5e-5 -0.0677,0 -0.02434,5.4e-5 -0.04851,-3.44e-4 -0.07286,0 -0.02286,6.88e-4 -0.04707,0.0029 -0.07183,-10e-4 -0.0011,-2.4e-5 -0.0021,3.3e-5 -0.0031,0 -0.0031,0.0044 -0.0069,0.0075 -0.0098,0.0124 0.0146,0.004 0.02937,0.0076 0.04392,0.01292 -0.01535,-0.0048 -0.0304,-0.0084 -0.04547,-0.01085 -0.04167,0.07087 -0.05842,0.189528 -0.04237,0.364319 0.01161,-0.03268 0.03023,-0.06467 0.05219,-0.077 0.11825,-0.06635 0.249603,-0.103519 0.382405,-0.136425 l 0.0041,-0.100253 c -0.02238,0.0033 -0.04462,0.0072 -0.06718,0.0088 -0.02111,0.0015 0.04095,-0.01133 0.06201,-0.01344 0.0013,-1.41e-4 0.0042,-3.71e-4 0.0057,-5.29e-4 v -0.0052 c 0.01503,7.15e-4 0.02993,0.0019 0.04496,0.0026 0.01169,-7.94e-4 0.02101,-0.0016 0.0341,-0.0021 -0.02432,-0.01798 -0.04867,-0.03555 -0.07338,-0.05064 z m -3.557405,-0.04599 c 0.03459,0.0051 0.06942,0.01088 0.106453,0.02429 -0.02053,-0.006 -0.04065,-0.01329 -0.0615,-0.01809 -0.01865,-0.0043 -0.03672,-0.0054 -0.04496,-0.0062 z m 3.605983,0.104903 c -0.01159,0.03275 -0.02682,0.0648 -0.04083,0.09715 0.04995,-0.0122 0.0996,-0.02498 0.149345,-0.03721 -0.01519,-0.0135 -0.02976,-0.02766 -0.04547,-0.04031 -0.02093,-0.0069 -0.04206,-0.01304 -0.06305,-0.01964 z m -9.967352,0.0863 v 0.165365 c 0.0024,-6.35e-4 0.0048,-0.0014 0.0072,-0.0021 0.01326,-0.0498 0.02437,-0.08457 0.03721,-0.138493 0.01167,-0.0057 0.02347,-0.0057 0.03514,-0.0098 -0.02954,-0.0067 -0.05294,-0.01 -0.07958,-0.01499 z m 9.906373,0.05943 c -0.04139,0.09043 -0.08148,0.181084 -0.117824,0.272335 h 0.105936 z m -9.865032,0.241846 c -0.01646,0.0031 -0.02845,0.0056 -0.04134,0.0083 v 0.02222 h 0.174667 c -0.04045,-0.0099 -0.07364,-0.01914 -0.133326,-0.03049 z m 0.506947,0.0047 c -0.01323,0.01172 -0.01826,0.01461 -0.03101,0.02584 h 0.02273 c 0.0021,-0.0083 0.0065,-0.01788 0.0083,-0.02584 z m 8.935887,0.0124 c 7.94e-4,0.0047 0.0011,0.0091 0.0016,0.01344 h 0.03924 c -0.01386,-0.0028 -0.02021,-0.0047 -0.03566,-0.0078 -0.0029,-5.82e-4 -0.0028,-0.0045 -0.0052,-0.0057 z" />
    </clipPath>
    <rect
       x="2.6458333"
       y="42.333332"
       width="34.395832"
       height="11.90625"
       id="rect1333-7" />
    <rect
       x="2.6458333"
       y="42.333332"
       width="34.395832"
       height="11.90625"
       id="rect1346" />
    <rect
       x="2.6458333"
       y="42.333332"
       width="34.395832"
       height="11.90625"
       id="rect1333-8" />
    <rect
       x="2.6458333"
       y="42.333332"
       width="34.395832"
       height="11.90625"
       id="rect1346-5" />
    <rect
       x="2.6458333"
       y="42.333332"
       width="34.395832"
       height="11.90625"
       id="rect1333-1" />
    <rect
       x="2.6458333"
       y="42.333332"
       width="34.395832"
       height="11.90625"
       id="rect1346-58" />
  </defs>
  <sodipodi:namedview
     id="base"
     pagecolor="#ffffff"
     bordercolor="#666666"
     borderopacity="1.0"
     inkscape:pageopacity="0.0"
     inkscape:pageshadow="2"
     inkscape:zoom="2.2766005"
     inkscape:cx="298.4826"
     inkscape:cy="111.08938"
     inkscape:document-units="px"
     inkscape:current-layer="layer1"
     inkscape:document-rotation="0"
     showgrid="true"
     units="px"
     inkscape:window-width="1920"
     inkscape:window-height="1001"
     inkscape:window-x="-9"
     inkscape:window-y="-9"
     inkscape:window-maximized="1">
    <inkscape:grid
       type="xygrid"
       id="grid10" />
  </sodipodi:namedview>
  <metadata
     id="metadata5">
    <rdf:RDF>
      <cc:Work
         rdf:about="">
        <dc:format>image/svg+xml</dc:format>
        <dc:type
           rdf:resource="http://purl.org/dc/dcmitype/StillImage" />
        <dc:title />
      </cc:Work>
    </rdf:RDF>
  </metadata>
  <g
     inkscape:label="Layer 1"
     inkscape:groupmode="layer"
     id="layer1">
    <path
       id="rect835"
       style="font-variation-settings:'wdth' 100, 'wght' 400;fill:none;stroke:#000000;stroke-width:0.999999;stroke-opacity:1"
       transform="scale(0.26458333)"
       d="M 30,40 V 95 H 85 V 40 Z m 15.587891,6.871094 c 0.160601,0.03874 0.313683,0.21172 0.376953,0.542968 0.103132,0.539921 0.399322,1.068422 0.414062,1.628907 0.0023,0.09301 -0.004,0.187265 -0.01758,0.279297 -0.02683,0.180926 -0.112359,0.200726 -0.03125,0.175781 0.03541,0.354848 0.123272,0.719384 0.06641,1.076172 0.02948,0.156771 0.02493,0.32997 0.02539,0.492187 -0.0026,0.167536 4.5e-4,0.334723 0.002,0.501953 0.205658,-0.0026 0.411033,-0.0066 0.617188,-0.0059 0.257983,-0.0054 0.517324,-0.0017 0.77539,-0.0039 0.269152,-2.69e-4 0.537539,9.86e-4 0.806641,-0.0039 0.279296,-0.0083 0.558659,-0.0062 0.837891,-0.01758 0.276,-0.0072 0.552033,-0.0052 0.828124,-0.0098 0.177957,7.29e-4 0.292366,-0.01419 0.361329,-0.01367 0.170291,0.0013 0.07102,0.147991 -0.0098,0.732422 0.113416,0.822108 0.266027,0.718171 -0.351563,0.720703 -0.276083,-0.0045 -0.552109,-0.0026 -0.828124,-0.0098 -0.279228,-0.01172 -0.558584,-0.0093 -0.837891,-0.01758 -0.269114,-0.0049 -0.537501,-0.0036 -0.806641,-0.0039 -0.258047,-0.002 -0.5174,0.0018 -0.77539,-0.0039 -0.201587,8.16e-4 -0.402429,-0.0032 -0.603516,-0.0059 8.4e-5,0.108762 5e-6,0.217536 0,0.326172 -0.04656,0.154995 -0.09406,0.309845 -0.140625,0.464844 -0.03768,0.08572 -0.08418,0.16888 -0.113281,0.257812 -0.0087,0.02627 -0.0077,0.05425 -0.0098,0.08203 0.0067,0.02672 0.01167,0.05334 0.0039,0.08008 -0.0024,0.0083 -0.01,-0.01512 -0.0098,-0.02344 7e-4,-0.01904 0.0044,-0.03749 0.0059,-0.05664 -0.02481,-0.09837 -0.124252,-0.19217 -0.160156,-0.248047 0.2076,0.65603 0.141928,0.818671 0.02539,1.138672 0.250619,-8.6e-5 0.501225,1.52e-4 0.751954,0 0.512194,8.3e-5 1.024911,4.5e-5 1.537109,0 0.354516,-6.1e-5 0.70798,-8e-6 1.0625,0 0.284727,-4e-6 0.570757,0 0.855469,0 h 0.710937 0.441407 c 0.0528,0 0.152155,-0.05246 0.158203,0 v 0.002 c 0.02319,-9.9e-5 0.04492,5.22e-4 0.06641,0.002 0.03422,0.0022 0.07151,0.002 0.101562,0.0078 1.23e-4,-0.0039 -1.22e-4,-0.0078 0,-0.01172 0.0121,0 0.03579,-0.0121 0.03516,0 -4.09e-4,0.0078 -0.0015,0.01562 -0.002,0.02344 0.501665,0.129059 0.375279,0.81343 0.181641,1.583985 0.193364,0.769778 0.319612,1.453081 -0.181641,1.582031 4.07e-4,0.0078 0.0015,0.01562 0.002,0.02344 7.56e-4,0.0121 -0.02306,0 -0.03516,0 -1.22e-4,-0.0039 1.23e-4,-0.0078 0,-0.01172 -0.03005,0.0058 -0.06735,0.0056 -0.101562,0.0078 -0.02149,0.0014 -0.04321,0.0021 -0.06641,0.002 v 0.002 c -0.0059,0.05246 -0.105405,0 -0.158203,0 h -0.441407 c -0.23757,0 -0.473356,4e-6 -0.710937,0 h -0.855469 c -0.354403,-4e-6 -0.708094,-5.6e-5 -1.0625,0 -0.511646,4.9e-5 -1.02351,8.3e-5 -1.535156,0 -0.366998,2.23e-4 -0.734285,-2.81e-4 -1.101563,0 0.02279,0.05239 0.02855,0.04805 0.0625,0.138672 0.03026,0.08047 0.0179,0.170442 0.02734,0.25586 -0.0035,0.192784 -0.06067,0.381576 -0.04102,0.574218 0.04422,0.07967 -0.0152,0.17216 0.0078,0.253906 0.04505,0.209349 -0.0025,-0.118958 0.0059,-0.08984 0.102236,0.357585 0.08355,0.222419 0.09375,0.501953 0.01531,0.116193 0.01056,0.233085 0.01758,0.349609 0.652111,0.01209 1.305,0.0049 1.957032,-0.002 0.04709,1.48e-4 0.09754,0.01928 0.140625,0 0.02638,-0.01172 -0.101307,-0.0038 -0.08203,-0.02539 0.115404,-0.128278 1.103555,-0.146614 1.375,-0.16211 0.478602,-0.03099 0.961811,-0.03282 1.441407,-0.02148 0.04456,0.0011 0.132857,-0.03866 0.132812,0.0059 -7.25e-4,0.686015 -0.0356,1.371452 -0.07422,2.056641 l 0.01172,0.201172 c 0.06122,0.465884 0.09893,0.73031 0.04687,0.839843 v 0.002 c 0.0051,0.06698 0.0045,0.03628 0.0098,0.105469 5e-5,0.0013 -0.0033,-6.94e-4 -0.0039,0 v 0.002 c -0.0078,4.47e-4 -0.01902,0.0036 -0.02344,0 0,0 -0.002,0 -0.002,0 0,0 -0.002,0 -0.002,0 -0.0041,-0.0437 -0.0018,-0.02166 -0.0059,-0.06445 -0.01606,0.0151 -0.03365,0.03469 -0.05859,0.04297 6.7e-5,0.0085 -6.6e-5,0.01693 0,0.02539 0,0.0045 -0.0074,-0.0016 -0.01367,0 -0.0099,0.0025 -0.01914,0.0083 -0.02148,0.002 0,0 -0.002,0 -0.002,0 -0.02561,0.0014 -0.07178,0.02624 -0.07227,0.002 -9.2e-5,-0.0046 9e-5,-0.0091 0,-0.01367 -0.202428,0.01608 -0.555074,-0.02426 -1.205079,0.02344 -0.128336,0.0057 -0.256337,0.01515 -0.384765,0.01758 -0.0299,3.78e-4 -0.0545,-0.03692 -0.08398,-0.03125 -0.359908,0.07003 -0.710084,0.25401 -1.089843,0.207031 -0.564491,0.0055 -1.130238,0.01335 -1.695313,0.01172 -0.0012,0.07092 -0.0017,0.141883 -0.0039,0.21289 1.51e-4,0.200194 7.94e-4,0.39937 0,0.59961 0.02182,0.245301 -0.02945,0.467038 -0.166016,0.65625 0.0044,0.02654 0.0037,0.0614 0.002,0.08203 -0.03719,0.437337 -2.97e-4,0.309709 -0.169922,0.613281 -0.06051,0.200806 -0.02394,0.117403 -0.03906,-0.05664 0.0094,0.284153 -0.100366,0.490851 -0.171875,0.748047 -0.01032,0.03141 -0.0075,0.01945 -0.01563,0.04297 -9.64e-4,0.01006 0.0014,-5.69e-4 0,0.01172 -0.0064,0.05677 -0.02105,0.11372 -0.03125,0.169922 -0.0579,0.262159 -0.115723,0.52413 -0.169922,0.787109 -0.05862,0.21947 -0.105076,0.440339 -0.162109,0.660156 0.02076,-0.04632 -0.019,0.05848 -0.05078,0.144532 2.54e-4,0.01678 1.92e-4,0.03262 -0.0098,0.132812 -0.01463,0.118904 -0.07573,0.235885 -0.0625,0.355469 -0.03035,0.451037 -0.188617,0.874749 -0.298828,1.308594 0.09557,-0.371294 0.0911,-0.276538 -0.833985,-0.611329 -0.129519,-0.04686 0.159731,0.222224 0.240235,0.333985 0.06659,0.09236 0.01037,-0.005 0.07031,0.0918 0.369045,0.595846 0.45078,0.582196 -0.763671,-0.111328 -0.02578,-0.01466 0.01273,-0.05721 0.01953,-0.08594 0.133984,-0.396427 0.249472,-0.799186 0.388672,-1.191406 0.02219,-0.06569 0.06841,-0.251077 0.126953,-0.283203 0.0192,0.149665 0.01784,-0.290112 0.08398,-0.375 0.05684,-0.201744 0.08727,-0.409136 0.150391,-0.609375 0.05945,-0.259011 0.114326,-0.518787 0.175781,-0.777344 0.0054,0.02313 -0.02756,0.118919 0.0059,-0.07227 0.01546,-0.08886 0.05028,-0.171853 0.07031,-0.259765 0.0026,-0.01304 -0.03527,0.07787 -0.01563,0.03516 0.03369,-0.119773 0.159379,-0.544198 0.185547,-0.478516 0.02218,-0.163493 0.07124,-0.32172 0.154297,-0.474609 -0.01073,-0.08298 -0.02579,-0.106249 -0.02539,-0.160156 0.0021,-0.282655 0.06467,-0.34783 0.193359,-0.529297 1.56e-4,-0.03421 -1.65e-4,-0.06734 0,-0.101563 8.28e-4,-0.210859 4.95e-4,-0.421952 -0.002,-0.632812 0.0023,-0.06901 -0.0011,-0.137165 0.002,-0.205078 -0.02992,-0.0018 -0.05993,7.8e-5 -0.08984,-0.002 -1.667479,-0.08796 -3.340962,-0.147508 -4.990235,-0.429688 l 0.458985,-3.183594 c 1.436378,0.247777 2.892594,0.309277 4.345703,0.382813 -0.01147,-0.103871 -0.01851,-0.207621 -0.01758,-0.3125 0.01784,0.01602 0.06262,0.07151 0.05469,0.04883 -0.06788,-0.190314 -0.193289,-0.376704 -0.15625,-0.591797 -0.02297,-0.220624 -0.0048,-0.437784 0.0293,-0.65625 -0.0852,-0.136518 -0.156879,-0.307647 -0.169922,-0.433594 -0.778804,6.52e-4 -1.556803,0.009 -2.335937,0.0098 -1.268259,-0.02963 -2.538377,-0.119598 -3.802735,0.06836 -3.147381,0.467861 -3.412814,-2.733877 -0.265625,-3.203125 0.686926,-0.102425 1.3755,-0.128089 2.064453,-0.125 0.688954,0.0031 1.379335,0.03415 2.06836,0.04492 0.881488,-0.003 1.763017,-0.01501 2.644531,-0.01172 0.0039,2.3e-5 0.0078,-2.1e-5 0.01172,0 0.0016,-0.0058 0.0022,-0.01184 0.0039,-0.01758 0.05144,-0.177498 0.112184,-0.34939 0.173828,-0.523437 0.01372,-0.03863 0.01154,-0.145534 0.04102,-0.117188 0.0023,0.0023 0.0036,0.0055 0.0059,0.0078 -0.106701,-0.329837 0.02737,-0.805108 0.228516,-1.042969 2e-6,-0.113189 -0.0014,-0.226525 -0.002,-0.339844 -0.250127,0.0042 -0.500984,0.0089 -0.75,-0.002 -0.526749,-7.25e-4 -1.05333,-0.0021 -1.580079,-0.002 -0.501812,-0.0045 -1.00421,-0.0039 -1.505859,-0.01563 -0.943801,-0.01361 -1.886062,-0.02955 -2.830078,-0.02539 -1.226784,0.0052 -1.226784,-1.245526 0,-1.240235 0.944016,0.0038 1.886277,-0.01178 2.830078,-0.02539 0.501649,-0.01174 1.004047,-0.01111 1.505859,-0.01562 0.526749,1.63e-4 1.05333,-0.0012 1.580079,-0.002 0.254853,-0.01112 0.511589,-0.0062 0.767578,-0.002 0.0015,-0.171287 0.003,-0.342615 0.002,-0.513672 -3.56e-4,-0.222219 -0.0014,-0.444926 0.02344,-0.666015 v -0.002 c 0.03304,0.0094 0.0092,-0.07726 0.0078,-0.115235 -0.01077,-0.288707 -0.05903,-0.57324 -0.04883,-0.863281 0.01376,-0.09358 0.02899,-0.32693 0.08398,-0.337891 0.02457,-0.005 0.02835,0.0906 0.03516,0.06641 0.06755,-0.239615 -0.344888,-1.280998 -0.367187,-1.478516 h 0.002 c -0.06313,-0.558524 0.226472,-0.865343 0.494141,-0.800781 z m 0.351562,18.033203 c -0.05018,0.05721 -0.106143,0.11282 -0.175781,0.162109 0.194521,0.04199 0.175269,-0.06888 0.175781,-0.162109 z m -1.316406,8.238281 c 0.231816,0.04647 0.470312,0.26413 0.595703,0.6875 0.262753,0.887188 0.524357,1.774922 0.787109,2.66211 0.334368,1.128993 -0.80625,1.466877 -1.140625,0.33789 -0.262756,-0.887187 -0.524356,-1.774926 -0.787109,-2.662109 -0.20898,-0.705626 0.158561,-1.10284 0.544922,-1.025391 z"
       clip-path="url(#clipPath1134)" />
    <rect
       style="font-variation-settings:'wdth' 100, 'wght' 400;fill:none;stroke:#000000;stroke-width:0.264583;stroke-opacity:1"
       id="rect835-8"
       width="14.552083"
       height="14.552083"
       x="39.6875"
       y="10.583333"
       clip-path="url(#clipPath1200)" />
    <rect
       style="font-variation-settings:'wdth' 100, 'wght' 400;fill:none;stroke:#000000;stroke-width:0.264583;stroke-opacity:1"
       id="rect835-7"
       width="14.552083"
       height="14.552083"
       x="71.4375"
       y="10.583333" />
    <rect
       style="font-variation-settings:'wdth' 100, 'wght' 400;fill:none;stroke:#000000;stroke-width:0.264583;stroke-opacity:1"
       id="rect835-0"
       width="14.552083"
       height="14.552083"
       x="103.1875"
       y="10.583333" />
    <rect
       style="font-variation-settings:'wdth' 100, 'wght' 400;fill:none;stroke:#000000;stroke-width:0.264583;stroke-opacity:1"
       id="rect835-07"
       width="14.552083"
       height="14.552083"
       x="140.22916"
       y="10.583333" />
    <path
       style="fill:none;stroke:#000000;stroke-width:0.264583px;stroke-linecap:butt;stroke-linejoin:miter;stroke-opacity:1"
       d="M 7.9374999,10.583333 11.90625,6.6145832"
       id="path918"
       clip-path="url(#clipPath1166)" />
    <path
       style="fill:none;stroke:#000000;stroke-width:0.264583px;stroke-linecap:butt;stroke-linejoin:miter;stroke-opacity:1"
       d="m 22.489583,10.583333 3.96875,-3.9687498"
       id="path920" />
    <path
       style="fill:none;stroke:#000000;stroke-width:0.264583px;stroke-linecap:butt;stroke-linejoin:miter;stroke-opacity:1"
       d="m 22.489583,25.135416 3.96875,-3.96875"
       id="path922"
       clip-path="url(#clipPath1188)" />
    <path
       style="fill:none;stroke:#000000;stroke-width:0.264583px;stroke-linecap:butt;stroke-linejoin:miter;stroke-opacity:1"
       d="M 39.6875,10.583333 43.656249,6.6145832"
       id="path924" />
    <path
       style="fill:none;stroke:#000000;stroke-width:0.264583px;stroke-linecap:butt;stroke-linejoin:miter;stroke-opacity:1"
       d="m 54.239583,10.583333 3.96875,-3.9687498"
       id="path926" />
    <path
       style="fill:none;stroke:#000000;stroke-width:0.264583px;stroke-linecap:butt;stroke-linejoin:miter;stroke-opacity:1"
       d="m 54.239583,25.135416 3.96875,-3.96875"
       id="path928" />
    <path
       style="fill:none;stroke:#000000;stroke-width:0.264583px;stroke-linecap:butt;stroke-linejoin:miter;stroke-opacity:1"
       d="m 71.437499,10.583333 3.96875,-3.9687498"
       id="path930" />
    <path
       style="fill:none;stroke:#000000;stroke-width:0.264583px;stroke-linecap:butt;stroke-linejoin:miter;stroke-opacity:1"
       d="m 85.989582,10.583333 3.96875,-3.9687498"
       id="path932" />
    <path
       style="fill:none;stroke:#000000;stroke-width:0.264583px;stroke-linecap:butt;stroke-linejoin:miter;stroke-opacity:1"
       d="m 85.989582,25.135416 3.96875,-3.96875"
       id="path934" />
    <path
       style="fill:none;stroke:#000000;stroke-width:0.264583px;stroke-linecap:butt;stroke-linejoin:miter;stroke-opacity:1"
       d="m 103.1875,10.583333 3.96875,-3.9687498"
       id="path936" />
    <path
       style="fill:none;stroke:#000000;stroke-width:0.264583px;stroke-linecap:butt;stroke-linejoin:miter;stroke-opacity:1"
       d="m 117.73958,10.583333 3.96875,-3.9687498"
       id="path938" />
    <path
       style="fill:none;stroke:#000000;stroke-width:0.264583px;stroke-linecap:butt;stroke-linejoin:miter;stroke-opacity:1"
       d="m 117.73958,25.135416 3.96875,-3.96875"
       id="path940" />
    <path
       style="fill:none;stroke:#000000;stroke-width:0.264583px;stroke-linecap:butt;stroke-linejoin:miter;stroke-opacity:1"
       d="m 140.22916,10.583333 3.96875,-3.9687498"
       id="path942" />
    <path
       style="fill:none;stroke:#000000;stroke-width:0.264583px;stroke-linecap:butt;stroke-linejoin:miter;stroke-opacity:1"
       d="M 154.78125,10.583333 158.75,6.6145832"
       id="path944" />
    <path
       style="fill:none;stroke:#000000;stroke-width:0.264583px;stroke-linecap:butt;stroke-linejoin:miter;stroke-opacity:1"
       d="M 11.90625,6.6145832 H 26.458333 V 21.166666"
       id="path1224" />
    <path
       style="fill:none;stroke:#000000;stroke-width:0.264583px;stroke-linecap:butt;stroke-linejoin:miter;stroke-opacity:1"
       d="M 43.656249,6.6145832 H 58.208333 V 21.166666"
       id="path1226" />
    <path
       style="fill:none;stroke:#000000;stroke-width:0.264583px;stroke-linecap:butt;stroke-linejoin:miter;stroke-opacity:1"
       d="M 75.406249,6.6145832 H 89.958332 V 21.166666"
       id="path1228" />
    <path
       style="fill:none;stroke:#000000;stroke-width:0.264583px;stroke-linecap:butt;stroke-linejoin:miter;stroke-opacity:1"
       d="m 107.15625,6.6145832 h 14.55208 V 21.166666"
       id="path1230" />
    <path
       style="fill:none;stroke:#000000;stroke-width:0.264583px;stroke-linecap:butt;stroke-linejoin:miter;stroke-opacity:1"
       d="M 144.19791,6.6145832 H 158.75 V 21.166666"
       id="path1232" />
    <path
       style="fill:none;stroke:#000000;stroke-width:0.264583px;stroke-linecap:butt;stroke-linejoin:miter;stroke-opacity:1"
       d="M 154.78125,25.135416 158.75,21.166666"
       id="path1234" />
    <path
       style="font-variation-settings:'wdth' 100, 'wght' 400;fill:#d1d1d1;stroke:none;stroke-width:0.178571;stroke-opacity:1;fill-opacity:1"
       d="M 30.535468,67.486027 V 40.521742 H 57.499754 84.46404 V 67.486027 94.450313 H 57.499754 30.535468 Z"
       id="path1236"
       transform="scale(0.26458333)" />
    <path
       style="font-variation-settings:'wdth' 100, 'wght' 400;fill:#d1d1d1;fill-opacity:1;stroke:none;stroke-width:0.178571;stroke-opacity:1"
       d="M 150.62475,67.486027 V 40.521742 h 26.875 26.875 v 26.964285 26.964286 h -26.875 -26.875 z"
       id="path1238"
       transform="scale(0.26458333)" />
    <path
       style="font-variation-settings:'wdth' 100, 'wght' 400;fill:#d1d1d1;fill-opacity:1;stroke:none;stroke-width:0.178571;stroke-opacity:1"
       d="M 270.5678,67.486027 V 40.521742 h 26.96428 26.96429 V 67.486027 94.450313 H 297.53208 270.5678 Z"
       id="path1240"
       transform="scale(0.26458333)" />
    <path
       style="font-variation-settings:'wdth' 100, 'wght' 400;fill:#d1d1d1;fill-opacity:1;stroke:none;stroke-width:0.178571;stroke-opacity:1"
       d="M 390.6523,67.486027 V 40.521742 h 26.875 26.875 v 26.964285 26.964286 h -26.875 -26.875 z"
       id="path1242"
       transform="scale(0.26458333)" />
    <path
       style="font-variation-settings:'wdth' 100, 'wght' 400;fill:#b5b5b5;fill-opacity:1;stroke:none;stroke-width:0.178571;stroke-opacity:1"
       d="m 38.325,32.486027 6.962569,-6.964285 h 26.696428 26.696428 l -6.962568,6.964285 -6.962568,6.964286 H 58.058861 31.362431 Z"
       id="path1244"
       transform="scale(0.26458333)" />
    <path
       style="font-variation-settings:'wdth' 100, 'wght' 400;fill:#b5b5b5;fill-opacity:1;stroke:none;stroke-width:0.178571;stroke-opacity:1"
       d="m 158.325,32.486027 6.96257,-6.964285 h 26.69643 26.69643 l -6.96257,6.964285 -6.96257,6.964286 h -26.69643 -26.69643 z"
       id="path1246"
       transform="scale(0.26458333)" />
    <path
       style="font-variation-settings:'wdth' 100, 'wght' 400;fill:#b5b5b5;fill-opacity:1;stroke:none;stroke-width:0.178571;stroke-opacity:1"
       d="m 278.39631,32.486027 6.96257,-6.964285 h 26.60714 26.60714 l -6.96257,6.964285 -6.96256,6.964286 h -26.60715 -26.60714 z"
       id="path1248"
       transform="scale(0.26458333)" />
    <path
       style="font-variation-settings:'wdth' 100, 'wght' 400;fill:#b5b5b5;fill-opacity:1;stroke:none;stroke-width:0.178571;stroke-opacity:1"
       d="m 398.39631,32.486027 6.96257,-6.964285 h 26.60714 26.60714 l -6.96257,6.964285 -6.96256,6.964286 h -26.60715 -26.60714 z"
       id="path1250"
       transform="scale(0.26458333)" />
    <path
       style="font-variation-settings:'wdth' 100, 'wght' 400;fill:#929292;fill-opacity:1;stroke:none;stroke-width:0.178571;stroke-opacity:1"
       d="M 85.487167,67.037881 V 40.430739 l 6.964286,-6.962569 6.964286,-6.962568 v 26.607143 26.607143 l -6.964286,6.962568 -6.964286,6.962568 z"
       id="path1252"
       transform="scale(0.26458333)" />
    <path
       style="font-variation-settings:'wdth' 100, 'wght' 400;fill:#929292;fill-opacity:1;stroke:none;stroke-width:0.178571;stroke-opacity:1"
       d="M 205.64346,66.859288 V 40.252145 l 6.875,-6.873261 6.875,-6.87326 V 53.112767 79.71991 l -6.875,6.87326 -6.875,6.873261 z"
       id="path1254"
       transform="scale(0.26458333)" />
    <path
       style="font-variation-settings:'wdth' 100, 'wght' 400;fill:#929292;fill-opacity:1;stroke:none;stroke-width:0.178571;stroke-opacity:1"
       d="M 325.67639,66.859288 V 40.252145 l 6.875,-6.873261 6.875,-6.87326 V 53.112767 79.71991 l -6.875,6.87326 -6.875,6.873261 z"
       id="path1256"
       transform="scale(0.26458333)" />
    <path
       style="font-variation-settings:'wdth' 100, 'wght' 400;fill:#929292;fill-opacity:1;stroke:none;stroke-width:0.178571;stroke-opacity:1"
       d="M 445.65412,66.859288 V 40.252145 l 6.875,-6.873261 6.875,-6.87326 V 53.112767 79.71991 l -6.875,6.87326 -6.875,6.873261 z"
       id="path1258"
       transform="scale(0.26458333)" />
    <path
       style="font-variation-settings:'wdth' 100, 'wght' 400;fill:#999999;fill-opacity:1;stroke:none;stroke-width:0.178571;stroke-opacity:1"
       d="M 530.63547,67.486027 V 40.521742 h 26.875 26.875 v 26.964285 26.964286 h -26.875 -26.875 z"
       id="path1260"
       transform="scale(0.26458333)" />
    <path
       style="font-variation-settings:'wdth' 100, 'wght' 400;fill:#6c6c6c;fill-opacity:1;stroke:none;stroke-width:0.178571;stroke-opacity:1"
       d="m 538.40333,32.486027 6.96257,-6.964285 h 26.60714 26.60714 l -6.96256,6.964285 -6.96257,6.964286 H 558.0479 531.44076 Z"
       id="path1262"
       transform="scale(0.26458333)" />
    <path
       style="font-variation-settings:'wdth' 100, 'wght' 400;fill:#4b4b4b;fill-opacity:1;stroke:none;stroke-width:0.178571;stroke-opacity:1"
       d="M 585.63547,66.859288 V 40.252145 l 6.875,-6.873261 6.875,-6.87326 V 53.112767 79.71991 l -6.875,6.87326 -6.875,6.873261 z"
       id="path1264"
       transform="scale(0.26458333)" />
    <path
       style="fill:none;stroke:#000000;stroke-width:0.264583px;stroke-linecap:butt;stroke-linejoin:miter;stroke-opacity:1"
       d="M 39.6875,17.197916 H 25.135416"
       id="path1268" />
    <path
       style="fill:none;stroke:#000000;stroke-width:0.264583px;stroke-linecap:butt;stroke-linejoin:miter;stroke-opacity:1"
       d="M 71.437499,17.197916 H 56.885416"
       id="path1270" />
    <path
       style="fill:none;stroke:#000000;stroke-width:0.264583px;stroke-linecap:butt;stroke-linejoin:miter;stroke-opacity:1"
       d="M 103.1875,17.197916 H 88.635416"
       id="path1272" />
    <path
       style="fill:none;stroke:#000000;stroke-width:0.264583px;stroke-linecap:butt;stroke-linejoin:miter;stroke-opacity:1"
       d="M 120.38542,17.197916 H 127"
       id="path1274" />
    <path
       style="fill:none;stroke:#000000;stroke-width:0.264583px;stroke-linecap:butt;stroke-linejoin:miter;stroke-opacity:1"
       d="m 134.9375,17.197916 h 5.29166"
       id="path1276" />
    <path
       style="fill:none;stroke:#000000;stroke-width:0.264583px;stroke-linecap:butt;stroke-linejoin:miter;stroke-opacity:1"
       d="m 29.104166,15.875 -3.96875,1.322916 3.96875,1.322917"
       id="path1278" />
    <path
       style="fill:none;stroke:#000000;stroke-width:0.264583px;stroke-linecap:butt;stroke-linejoin:miter;stroke-opacity:1"
       d="m 60.854166,15.875 -3.96875,1.322916 3.96875,1.322917"
       id="path1280" />
    <path
       style="fill:none;stroke:#000000;stroke-width:0.264583px;stroke-linecap:butt;stroke-linejoin:miter;stroke-opacity:1"
       d="m 92.604166,15.875 -3.96875,1.322916 3.96875,1.322917"
       id="path1282" />
    <path
       style="fill:none;stroke:#000000;stroke-width:0.264583px;stroke-linecap:butt;stroke-linejoin:miter;stroke-opacity:1"
       d="m 124.35417,15.875 -3.96875,1.322916 3.96875,1.322917"
       id="path1284" />
    <path
       style="fill:none;stroke:#000000;stroke-width:0.264583px;stroke-linecap:butt;stroke-linejoin:miter;stroke-opacity:1"
       d="M 14.552083,22.489583 9.2604166,35.71875 v 6.614583"
       id="path1286" />
    <path
       style="fill:none;stroke:#000000;stroke-width:0.264583px;stroke-linecap:butt;stroke-linejoin:miter;stroke-opacity:1"
       d="M 46.302083,22.489583 41.010417,35.71875 v 6.614583"
       id="path1286-9" />
    <path
       style="fill:none;stroke:#000000;stroke-width:0.264583px;stroke-linecap:butt;stroke-linejoin:miter;stroke-opacity:1"
       d="M 78.052082,22.489583 72.760416,35.71875 v 6.614583"
       id="path1286-5" />
    <path
       style="fill:none;stroke:#000000;stroke-width:0.264583px;stroke-linecap:butt;stroke-linejoin:miter;stroke-opacity:1"
       d="m 146.84374,22.489583 -5.29166,13.229167 v 6.614583"
       id="path1286-6" />
    <path
       style="fill:none;stroke:#000000;stroke-width:0.264583px;stroke-linecap:butt;stroke-linejoin:miter;stroke-opacity:1"
       d="m 109.80209,22.489583 -5.29167,13.229167 v 6.614583"
       id="path1286-3" />
    <text
       xml:space="preserve"
       id="text1321"
       style="font-style:normal;font-variant:normal;font-weight:800;font-stretch:normal;font-size:7.05556px;line-height:1.25;font-family:Inconsolata;-inkscape-font-specification:'Inconsolata Ultra-Bold';white-space:pre;shape-inside:url(#rect1323);"
       transform="translate(1.5206227,-1.7514963)"><tspan
         x="127"
         y="21.212302"><tspan
           style="font-style:normal;font-variant:normal;font-weight:800;font-stretch:normal;font-size:7.05556px;font-family:Inconsolata;-inkscape-font-specification:'Inconsolata Ultra-Bold';fill:#ff0000;fill-opacity:1">X</tspan></tspan></text>
    <path
       style="fill:none;stroke:#000000;stroke-width:0.264583px;stroke-linecap:butt;stroke-linejoin:miter;stroke-opacity:1"
       d="M 128.32292,17.197916 H 127"
       id="path1327" />
    <path
       style="fill:none;stroke:#000000;stroke-width:0.264583px;stroke-linecap:butt;stroke-linejoin:miter;stroke-opacity:1"
       d="m 134.9375,17.197916 h -2.64584"
       id="path1329" />
    <text
       xml:space="preserve"
       id="text1331"
       style="font-size:3.52778px;line-height:1.25;font-family:Inconsolata;-inkscape-font-specification:'Inconsolata, @wght=400,wdth=100';font-variation-settings:'wdth' 100, 'wght' 400;white-space:pre;shape-inside:url(#rect1333);"
       transform="translate(0.39845195,-0.94151579)"><tspan
         x="2.6464844"
         y="45.663768"><tspan>yottadb.mjl_
</tspan></tspan><tspan
         x="2.6464844"
         y="50.073493"><tspan>2020227202423</tspan></tspan></text>
    <text
       xml:space="preserve"
       id="text1331-7"
       style="font-style:normal;font-variant:normal;font-weight:normal;font-stretch:normal;font-size:3.52778px;line-height:1.25;font-family:Inconsolata;-inkscape-font-specification:'Inconsolata, @wght=400,wdth=100';font-variant-ligatures:normal;font-variant-caps:normal;font-variant-numeric:normal;font-variant-east-asian:normal;font-variation-settings:'wdth' 100, 'wght' 400;white-space:pre;shape-inside:url(#rect1333-7);"
       transform="translate(32.245159,-0.95036003)"><tspan
         x="2.6464844"
         y="45.663768"><tspan>yottadb.mjl_
</tspan></tspan><tspan
         x="2.6464844"
         y="50.073493"><tspan>2020227082618</tspan></tspan></text>
    <text
       xml:space="preserve"
       id="text1331-0"
       style="font-size:3.52778px;line-height:1.25;font-family:Inconsolata;-inkscape-font-specification:'Inconsolata, @wght=400,wdth=100';font-variation-settings:'wdth' 100, 'wght' 400;white-space:pre;shape-inside:url(#rect1333-8);"
       transform="translate(63.946825,-0.9484387)"><tspan
         x="2.6464844"
         y="45.663768"><tspan>yottadb.mjl_
</tspan></tspan><tspan
         x="2.6464844"
         y="50.073493"><tspan>2020227083423</tspan></tspan></text>
    <text
       xml:space="preserve"
       id="text1331-8"
       style="font-size:3.52778px;line-height:1.25;font-family:Inconsolata;-inkscape-font-specification:'Inconsolata, @wght=400,wdth=100';font-variation-settings:'wdth' 100, 'wght' 400;white-space:pre;shape-inside:url(#rect1333-1);"
       transform="translate(95.693784,-0.96100184)"><tspan
         x="2.6464844"
         y="45.663768"><tspan>yottadb.mjl_
</tspan></tspan><tspan
         x="2.6464844"
         y="50.073493"><tspan>2020227084205</tspan></tspan></text>
    <text
       xml:space="preserve"
       id="text1424"
       style="font-style:normal;font-variant:normal;font-weight:bold;font-stretch:normal;font-size:3.52778px;line-height:1.25;font-family:Inconsolata;-inkscape-font-specification:'Inconsolata Bold';white-space:pre;shape-inside:url(#rect1426);"
       transform="translate(-0.00406584,-0.87574815)"><tspan
         x="134.9375"
         y="45.996748"><tspan
           style="font-style:normal;font-variant:normal;font-weight:bold;font-stretch:normal;font-size:3.88056px;font-family:Inconsolata;-inkscape-font-specification:'Inconsolata Bold';fill:#ff0101;fill-opacity:1">yottadb.mjl</tspan></tspan></text>
    <text
       xml:space="preserve"
       id="text1430"
       style="font-style:normal;font-variant:normal;font-weight:bold;font-stretch:normal;font-size:3.52778px;line-height:1.25;font-family:Lora;-inkscape-font-specification:'Lora Bold';white-space:pre;shape-inside:url(#rect1432);"
       transform="translate(-4.8759081,0.8099805)"><tspan
         x="42.333984"
         y="61.422572"><tspan
           style="font-style:normal;font-variant:normal;font-weight:bold;font-stretch:normal;font-family:Lora;-inkscape-font-specification:'Lora Bold'">Prior Generation Journal Files</tspan></tspan></text>
    <path
       style="fill:none;stroke:#000000;stroke-width:0.264583px;stroke-linecap:butt;stroke-linejoin:miter;stroke-opacity:1"
       d="M 63.499999,59.531249 V 56.885416"
       id="path1436" />
    <path
       style="fill:none;stroke:#000000;stroke-width:0.264583px;stroke-linecap:butt;stroke-linejoin:miter;stroke-opacity:1"
       d="m 2.6458333,50.270833 c 0,1.855864 0,3.528041 0.6946716,4.409854 0.6946716,0.881812 1.9514263,0.881812 12.1039541,0.881812 10.152528,0 29.093999,0 47.594952,0 18.500954,0 36.620575,0 46.260499,0 9.63992,0 11.08577,0 11.74709,-0.915162 0.66133,-0.915162 0.66133,-2.61235 0.66133,-4.376504"
       id="path1438"
       inkscape:path-effect="#path-effect1440"
       inkscape:original-d="m 2.6458333,50.270833 c -0.025596,1.855864 2.646e-4,3.528041 0,5.291666 1.3893432,0.07005 2.6460979,2.65e-4 3.9687499,0 18.9824038,0.05621 37.9238748,2.65e-4 56.8854158,0 18.040366,0.08967 36.159987,2.65e-4 54.239581,0 1.20025,-0.100716 2.6461,2.65e-4 3.96875,0 0.0156,-1.830324 2.7e-4,-3.527512 0,-5.291666" />
    <path
       style="fill:none;stroke:#000000;stroke-width:0.264583px;stroke-linecap:butt;stroke-linejoin:miter;stroke-opacity:1"
       d="M 63.499999,56.885416 V 55.562499"
       id="path1442" />
  </g>
</svg>
