<?xml version="1.0" encoding="UTF-8" standalone="no"?>
<svg
   xmlns:dc="http://purl.org/dc/elements/1.1/"
   xmlns:cc="http://creativecommons.org/ns#"
   xmlns:rdf="http://www.w3.org/1999/02/22-rdf-syntax-ns#"
   xmlns:svg="http://www.w3.org/2000/svg"
   xmlns="http://www.w3.org/2000/svg"
   xmlns:sodipodi="http://sodipodi.sourceforge.net/DTD/sodipodi-0.dtd"
   xmlns:inkscape="http://www.inkscape.org/namespaces/inkscape"
   width="299"
   height="175"
   viewBox="0 0 79.110415 46.302085"
   version="1.1"
   id="svg8"
   inkscape:version="1.0.1 (3bc2e813f5, 2020-09-07)"
   sodipodi:docname="querytree.svg">
  <defs
     id="defs2">
    <rect
       x="2.0331575"
       y="37.583333"
       width="18.762321"
       height="7.8013809"
       id="rect72" />
    <rect
       x="58.113941"
       y="35.852402"
       width="18.183873"
       height="9.542064"
       id="rect66" />
    <rect
       x="61.023361"
       y="26.890565"
       width="10.091334"
       height="6.0314426"
       id="rect60" />
    <rect
       x="30.600452"
       y="29.221228"
       width="23.37272"
       height="12.872278"
       id="rect54" />
    <rect
       x="2.6173323"
       y="29.898973"
       width="20.268576"
       height="11.979995"
       id="rect48" />
    <rect
       x="60.467822"
       y="17.928729"
       width="16.024717"
       height="11.502161"
       id="rect42" />
    <rect
       x="21.63165"
       y="19.581647"
       width="16.7578"
       height="12.106768"
       id="rect36" />
    <rect
       x="3.2129616"
       y="20.161874"
       width="12.1474"
       height="9.9516365"
       id="rect30" />
    <rect
       x="50.983572"
       y="7.5577683"
       width="15.194273"
       height="10.015023"
       id="rect24" />
    <rect
       x="3.2931424"
       y="8.493934"
       width="15.509269"
       height="9.2836432"
       id="rect18" />
    <rect
       x="31.614167"
       y="1.1070015"
       width="13.92856"
       height="6.3581254"
       id="rect12" />
    <clipPath
       clipPathUnits="userSpaceOnUse"
       id="clipPath135">
      <path
         id="path137"
         style="fill:#ff0000;fill-opacity:1;fill-rule:nonzero;stroke:none;stroke-width:0.264583"
         d="m 9.3968428,19.811711 v 5.355746 h 1.5792322 v -4.474663 c -0.01178,0.01643 -0.02432,0.03223 -0.03617,0.04858 0.0025,0.0028 0.0053,0.0054 0.0078,0.0083 0.0066,0.0078 -0.0048,0.0084 -0.01964,0.0083 -0.0012,0.0017 -0.0024,0.0035 -0.0036,0.0052 -0.02835,0.0053 -0.05647,0.01145 -0.08475,0.01705 0.02782,0.179254 0.04153,0.169997 -0.04289,0.153996 0.0063,3.18e-4 -0.0057,7.94e-4 -0.01964,0.0016 v 0.147795 h -0.132809 c -1.7e-5,0.0041 -0.0093,0.0029 -0.0124,0 h -0.0021 -0.0088 -0.112655 c -0.105993,-0.02247 -0.07802,-0.01648 -0.100252,-0.02635 -0.0027,-4.24e-4 -0.0028,5.55e-4 -0.0062,0 -0.0027,-4.5e-4 -0.0036,-9.79e-4 -0.0078,-0.0026 -0.0091,-9.26e-4 -0.02772,4.76e-4 -0.03359,-0.0016 0.0071,0.0064 -0.04542,0.0057 -0.07028,0.0052 0.0082,3.44e-4 -0.01507,-6.35e-4 -0.01137,-5.29e-4 0.01965,6.08e-4 0.03715,-0.0023 0.05685,-0.0057 -0.004,-0.0033 -0.0074,-0.0051 -0.01137,-0.0083 -0.0052,-0.0011 -0.0067,-0.0019 -0.01344,-0.0031 -1.52e-4,3.43e-4 -3.71e-4,6.87e-4 -5.29e-4,0.001 -3.97e-4,7.94e-4 -0.003,-1.58e-4 -0.0026,-0.001 0,0 5.29e-4,-5.3e-4 5.29e-4,-5.3e-4 -0.0011,-1.94e-4 -9.53e-4,-3.17e-4 -0.0021,-5.29e-4 -0.0014,-2.45e-4 -0.0011,-2.64e-4 -0.0026,-5.29e-4 0,0 0,-5.29e-4 0,-5.29e-4 -4.23e-4,-2.07e-4 -0.0011,-3.18e-4 -0.0016,-5.29e-4 -0.01215,-0.0052 -0.03305,-0.0076 -0.02842,-0.01809 0.0015,-0.0034 0.0036,-0.0064 0.0052,-0.0098 -0.172829,-0.126788 -0.3127106,-0.175658 -0.09715,-0.374137 0.02277,-0.02097 0.05227,-0.0286 0.08268,-0.03152 0.0032,-0.0095 0.0022,-0.0062 0.0078,-0.02429 0.02806,-0.0461 0.01885,-0.02867 0.0067,0.02222 0.0053,-1.72e-4 0.01012,9e-4 0.0155,0.001 0.04441,-0.09179 0.04372,-0.115732 0.07338,-0.129708 -0.0022,-0.01913 -0.0052,-0.04097 -0.0083,-0.06615 -0.0064,0.0076 -0.01128,0.0165 -0.01809,0.02377 -0.01031,0.01102 0.0019,-0.03051 0.0078,-0.04444 0.0017,-0.0042 0.0045,-0.0079 0.0067,-0.01189 -4.24e-4,-0.0033 -5.82e-4,-0.0043 -10e-4,-0.0078 -0.0029,-0.02233 0.04371,-0.07788 0.03721,-0.05633 -0.0071,0.0235 -0.02412,0.04261 -0.03617,0.06408 0.0018,0.01402 0.0021,0.02018 0.0036,0.03256 0.02858,-0.03358 0.05462,-0.06923 0.0801,-0.10542 -0.0093,-0.02043 -0.02004,-0.0399 -0.02997,-0.05994 0.0032,-0.01686 0.0066,-0.03379 0.0098,-0.05064 -0.0012,9.79e-4 -0.0024,0.0021 -0.0036,0.0031 -0.0076,0.006 0.02152,-0.04598 0.0083,-0.02791 -0.0016,0.0082 -0.0031,0.01656 -0.0047,0.0248 0.04016,-0.0319 0.07932,-0.06487 0.118339,-0.09819 4.1e-5,-8.47e-4 -4.1e-5,-0.0017 0,-0.0026 -0.05017,-0.005 -0.05849,-0.04095 -0.05426,-0.12299 -0.06752,0.02926 -0.04217,0.01177 5.29e-4,-0.01344 0.0019,-0.03758 0.0023,-0.08611 5.29e-4,-0.142627 z m 1.0872722,0.142627 c -2.47e-4,0.0049 -2.91e-4,0.0089 -5.29e-4,0.01344 0.0043,-0.0019 0.0016,-2.65e-4 0.0067,-0.0026 0.01968,-0.0088 0.03672,-0.02244 0.05426,-0.03514 5.8e-5,-0.0038 4.76e-4,-0.0076 5.29e-4,-0.01137 0.0192,-0.01062 -0.02519,0.01453 -0.06098,0.03566 z m -0.205156,0.648023 c -0.005,1.58e-4 -0.0096,0.0016 -0.01447,0.0021 -0.005,0.01473 -0.01077,0.03289 -0.01188,0.03772 0.0062,-9.52e-4 0.01243,-3.97e-4 0.0186,-0.001 0.0026,-0.01494 0.005,-0.02735 0.0078,-0.03876 z m 0,0.407726 c 0.0068,0.005 0.01323,0.0092 0.02015,0.01447 0.0014,-2.65e-4 0.0029,-2.63e-4 0.0047,-5.3e-4 0.0047,-0.01022 0.0097,-0.02029 0.01447,-0.03049 0.0097,-0.03832 0.02053,-0.07634 0.02997,-0.114722 -0.02444,0.04312 -0.04881,0.08614 -0.06925,0.131259 z m 0.02015,0.01447 c -6.35e-4,1.21e-4 -0.0024,-1.22e-4 -0.0021,5.29e-4 4.5e-4,9.26e-4 0.0021,3.17e-4 0.0031,5.29e-4 -3.97e-4,-3.18e-4 -6.35e-4,-7.15e-4 -0.001,-10e-4 z m 0.001,10e-4 c 7.14e-4,5.56e-4 0.0013,0.001 0.0021,0.0016 0,0 5.29e-4,-5.29e-4 5.29e-4,-5.29e-4 -0.0011,1.7e-5 -0.0017,-8.46e-4 -0.0026,-10e-4 z m 0.0021,0.0016 c -0.0013,0.0029 -0.0028,0.0058 -0.0041,0.0088 -7.14e-4,0.0015 0.0032,0.0035 0.0041,0.0021 0.0015,-0.0024 0.0031,-0.0048 0.0047,-0.0072 -0.0016,-0.0013 -0.003,-0.0024 -0.0047,-0.0036 z m 0.0047,0.0036 c 0,0 5.29e-4,5.29e-4 5.29e-4,5.29e-4 6.61e-4,-0.0014 0.0014,-0.0027 0.0021,-0.0041 -7.94e-4,0.0012 -0.0018,0.0024 -0.0026,0.0036 z m 0.0026,-0.0036 c -3.97e-4,0.0015 -6.35e-4,0.0031 -10e-4,0.0047 9.26e-4,7.14e-4 0.0017,0.0013 0.0026,0.0021 7.14e-4,-0.0017 0.0024,-0.0055 0.0031,-0.0072 -0.0016,-1.58e-4 -0.003,6.88e-4 -0.0047,5.29e-4 z m 0.0016,0.0067 c -6.09e-4,0.0014 -0.002,0.0048 -0.0026,0.0062 0.0013,2.4e-4 0.0013,2.91e-4 0.0026,5.29e-4 7.4e-4,-0.0017 0.0013,-0.0035 0.0021,-0.0052 -7.14e-4,-5.82e-4 -0.0013,-9.79e-4 -0.0021,-0.0016 z m 0.0021,0.0016 c 0.0039,0.0031 0.0074,0.0051 0.01137,0.0083 0.01059,0.0022 0.02217,0.0041 0.02739,0.0057 -0.0084,-0.0051 -0.0109,-0.01307 -0.0098,-0.02377 -0.0086,-1.54e-4 -0.01644,0.0018 -0.02532,10e-4 -0.0012,0.0029 -0.0024,0.0059 -0.0036,0.0088 z m 0.08113,0.01912 c 0.0011,1.13e-4 0.003,-9.8e-5 0.0041,0 -0.0048,-0.002 -0.0058,-4.77e-4 -0.01395,-0.0036 -0.0033,-0.0012 0.0045,0.0016 0.0098,0.0036 z m 0.0041,0 c 0.0034,0.0014 0.0076,0.0016 0.0098,0.0026 0.02772,0.0044 0.02929,0.0043 0.06253,0.001 -0.03813,0.0017 -0.05184,-0.0019 -0.07235,-0.0036 z M 10.25055,20.656642 c -1.38e-4,0.0042 4.5e-4,0.01897 10e-4,0.02997 0.0054,-0.0093 0.0062,-0.01271 0.01085,-0.02119 -0.0039,-0.0029 -0.0079,-0.0059 -0.01188,-0.0088 z m 0.124024,0.233578 c -0.006,0.01416 -0.0121,0.02822 -0.01809,0.04237 0.0065,-0.01434 0.0122,-0.02665 0.01912,-0.04186 -3.97e-4,-1.68e-4 -6.35e-4,-3.44e-4 -10e-4,-5.29e-4 z m 0.01964,0.0083 c -0.02156,0.03268 -0.04317,0.06545 -0.0646,0.09819 -0.0035,0.0081 -0.0069,0.01619 -0.01033,0.02429 0.008,-0.0016 0.01607,-0.0034 0.02429,-0.0047 0.006,-0.0236 0.02664,-0.06343 0.05271,-0.116788 -6.88e-4,-2.92e-4 -0.0014,-7.41e-4 -0.0021,-0.001 z m -0.07028,0.106453 c -0.0038,0.0058 -0.0076,0.01172 -0.01137,0.01757 0.0012,-2.91e-4 0.0024,-7.67e-4 0.0036,-10e-4 0.0018,-0.0042 0.0058,-0.01198 0.0078,-0.01654 z" />
    </clipPath>
    <clipPath
       clipPathUnits="userSpaceOnUse"
       id="clipPath147">
      <path
         id="path149"
         style="fill:#ff0000;fill-opacity:1;fill-rule:nonzero;stroke:none;stroke-width:0.264583"
         d="m 41.882716,19.764169 c -0.0049,0.02523 -0.0054,0.03672 -0.01394,0.07958 0.08579,0.0047 0.0831,0.02006 0.05374,0.132809 0.0072,4e-6 0.01447,-4e-6 0.0217,0 0.06557,0.0012 0.06807,0.02908 0.04651,0.126607 0.005,-1.4e-4 0.01,7.15e-4 0.01497,5.29e-4 0.0038,-2.15e-4 0.01101,-0.0049 0.01138,-0.001 0.0021,0.02221 0.0048,0.04443 0.0072,0.06666 0,0 0,5.29e-4 0,5.29e-4 0.0048,1.84e-4 0.0096,-1.42e-4 0.01447,0 0.02809,-0.0017 0.0563,-0.0039 0.08423,-0.0026 0.0093,3.97e-4 0.02752,-0.0067 0.02791,0.0026 0.0016,0.04136 -2.2e-4,0.08264 -0.0011,0.124024 0.08315,0.0027 0.120285,0.01527 0.126609,0.07751 0.08245,0.0025 0.08004,0.01737 0.05529,0.110588 0.04222,0.0086 0.03239,0.05239 0.01085,0.134875 0.0048,0.0054 0.0092,0.01174 0.01394,0.01757 0.01476,0.002 0.02196,0.0071 0.01497,0.01964 0.03522,0.04639 0.06797,0.09964 0.09147,0.151412 0.0269,-0.04953 0.04867,-0.07626 0.05271,0.0031 0.0011,0.01972 -0.0037,0.03927 -0.0057,0.05891 l -0.02687,-0.0078 c 0.02763,0.08446 0.01238,0.133099 -0.08578,0.07286 -0.03136,0.06396 -0.06357,0.121742 -0.09095,0.120406 h -0.03462 -0.03204 -0.01704 -0.02635 -0.01963 -0.02687 -0.03617 c -0.01678,0 -0.03386,-2e-6 -0.05064,0 -0.01852,3e-6 -0.03676,4e-6 -0.0553,0 -0.0191,1.1e-5 -0.03825,1.21e-4 -0.05736,0 -0.0062,-3.6e-5 -0.02471,0.0012 -0.0186,0 0.0075,-0.0015 0.03034,-0.0024 0.02273,-0.0026 -0.123439,-0.0023 -0.07345,0.044 -0.09457,-0.116788 -0.0075,-0.008 -0.0176,-0.01451 -0.02326,-0.02325 0.0065,0.0013 0.0131,0.0024 0.01963,0.0036 -0.0035,-0.0233 -0.01685,-0.06873 -0.02379,-0.100252 -0.008,-0.0097 -0.01643,-0.01695 -0.02376,-0.03101 -0.01228,-0.0022 -0.02954,-0.0029 -0.03669,-0.0062 -0.04879,-0.02251 -0.09378,-0.05315 -0.14056,-0.07958 0,0 0,5.3e-4 0,5.3e-4 -1.66e-4,9.52e-4 -0.0035,-0.0025 -0.0026,-0.0021 7.93e-4,5.03e-4 0.0016,0.0011 0.0026,0.0016 0.0026,-0.0146 0.0011,-0.01929 0.0031,-0.03256 -0.02252,-0.0056 -0.04506,-0.01065 -0.06718,-0.01757 -0.01032,-0.0032 -0.02885,-0.0026 -0.02946,-0.01344 -0.0016,-0.02921 -0.0033,-0.04083 -0.0052,-0.06563 -0.0035,-10e-4 -0.0074,-2.91e-4 -0.01085,-0.0016 -0.0038,-0.0014 -0.003,-0.0069 -0.0036,-0.01137 -0.008,0.0013 -0.01564,0.0038 -0.02376,0.0047 -0.01751,0.0019 -0.03663,0.008 -0.05323,0.0021 -0.05773,-0.02039 -0.110115,-0.05268 -0.165365,-0.07906 0.0058,-0.0186 0.0079,-0.03929 0.01188,-0.05891 -0.01093,-0.0075 -0.0213,-0.02041 -0.03204,-0.02946 -0.01894,-2.1e-5 -0.0379,-6.08e-4 -0.05684,-5.29e-4 -0.009,-0.01656 -0.02008,-0.03233 -0.02997,-0.04858 v 4.869987 h 4.180623 V 19.76416 Z m 0.60048,1.09554 c -0.0057,-0.01746 -0.01135,-0.03487 -0.02016,-0.05426 -0.0079,0.0146 -0.01476,0.02278 -0.02376,0.04186 z m -0.384474,0.136943 c -0.0011,8.73e-4 -0.0052,0.0049 -0.0062,0.0057 5.29e-4,-2.18e-4 0.0011,-2.91e-4 0.0016,-5.29e-4 0.0024,-0.0011 0.0035,-0.0038 0.0057,-0.0052 -2.64e-4,1.24e-4 -7.94e-4,-1.21e-4 -0.0011,0 z m -0.09508,0.01033 c -0.08583,0.01887 -0.132712,0.02424 -0.04754,0.03307 0.01333,2.91e-4 0.02326,-0.0027 0.0341,-0.0047 0.0083,-0.0035 0.01648,-0.0074 0.02482,-0.01137 -0.01728,0.0025 -0.01535,0.0026 -0.05323,0.0098 0.02201,-0.0054 0.04381,-0.01163 0.06615,-0.01602 -0.0011,-0.0039 -0.0011,-0.0044 -0.0021,-0.0083 -0.0074,-3.44e-4 -0.01476,-0.0015 -0.02222,-0.0026 z" />
    </clipPath>
  </defs>
  <sodipodi:namedview
     id="base"
     pagecolor="#ffffff"
     bordercolor="#666666"
     borderopacity="1.0"
     inkscape:pageopacity="0.0"
     inkscape:pageshadow="2"
     inkscape:zoom="2"
     inkscape:cx="189.3064"
     inkscape:cy="36.940009"
     inkscape:document-units="px"
     inkscape:current-layer="layer1"
     inkscape:document-rotation="0"
     showgrid="true"
     units="px"
     inkscape:showpageshadow="false"
     inkscape:window-width="1431"
     inkscape:window-height="1030"
     inkscape:window-x="471"
     inkscape:window-y="40"
     inkscape:window-maximized="0">
    <inkscape:grid
       type="xygrid"
       id="grid76" />
  </sodipodi:namedview>
  <metadata
     id="metadata5">
    <rdf:RDF>
      <cc:Work
         rdf:about="">
        <dc:format>image/svg+xml</dc:format>
        <dc:type
           rdf:resource="http://purl.org/dc/dcmitype/StillImage" />
        <dc:title></dc:title>
      </cc:Work>
    </rdf:RDF>
  </metadata>
  <g
     inkscape:label="Layer 1"
     inkscape:groupmode="layer"
     id="layer1">
    <text
       xml:space="preserve"
       id="text10"
       style="font-style:normal;font-variant:normal;font-weight:normal;font-stretch:normal;font-size:2.82222px;line-height:1.25;font-family:Inconsolata;-inkscape-font-specification:'Inconsolata, @wght=400,wdth=100';font-variant-ligatures:normal;font-variant-caps:normal;font-variant-numeric:normal;font-variant-east-asian:normal;font-variation-settings:'wdth' 100, 'wght' 400;white-space:pre;shape-inside:url(#rect12);"
       transform="translate(10.400604,-1.1799589)"><tspan
         x="31.613281"
         y="3.7712452"><tspan
           style="font-style:normal;font-variant:normal;font-weight:normal;font-stretch:normal;font-size:2.82222px;font-family:Inconsolata;-inkscape-font-specification:'Inconsolata, @wght=400,wdth=100';font-variant-ligatures:normal;font-variant-caps:normal;font-variant-numeric:normal;font-variant-east-asian:normal;font-variation-settings:'wdth' 100, 'wght' 400">^x</tspan></tspan></text>
    <text
       xml:space="preserve"
       id="text16"
       style="font-style:normal;font-variant:normal;font-weight:normal;font-stretch:normal;font-size:2.82222px;line-height:1.25;font-family:Inconsolata;-inkscape-font-specification:'Inconsolata, @wght=400,wdth=100';font-variant-ligatures:normal;font-variant-caps:normal;font-variant-numeric:normal;font-variant-east-asian:normal;font-variation-settings:'wdth' 100, 'wght' 400;white-space:pre;shape-inside:url(#rect18);"
       transform="translate(23.061307,-2.2100707)"><tspan
         x="3.2929688"
         y="11.157964"><tspan
           style="font-style:normal;font-variant:normal;font-weight:normal;font-stretch:normal;font-size:2.82222px;font-family:Inconsolata;-inkscape-font-specification:'Inconsolata, @wght=400,wdth=100';font-variant-ligatures:normal;font-variant-caps:normal;font-variant-numeric:normal;font-variant-east-asian:normal;font-variation-settings:'wdth' 100, 'wght' 400">(1)</tspan></tspan></text>
    <text
       xml:space="preserve"
       id="text22"
       style="font-style:normal;font-variant:normal;font-weight:normal;font-stretch:normal;font-size:2.82222px;line-height:1.25;font-family:Inconsolata;-inkscape-font-specification:'Inconsolata, @wght=400,wdth=100';font-variant-ligatures:normal;font-variant-caps:normal;font-variant-numeric:normal;font-variant-east-asian:normal;font-variation-settings:'wdth' 100, 'wght' 400;white-space:pre;shape-inside:url(#rect24);"
       transform="translate(5.2174828,-1.282352)"><tspan
         x="50.984375"
         y="10.222417"><tspan
           style="font-style:normal;font-variant:normal;font-weight:normal;font-stretch:normal;font-size:2.82222px;font-family:Inconsolata;-inkscape-font-specification:'Inconsolata, @wght=400,wdth=100';font-variant-ligatures:normal;font-variant-caps:normal;font-variant-numeric:normal;font-variant-east-asian:normal;font-variation-settings:'wdth' 100, 'wght' 400">(B)</tspan></tspan></text>
    <text
       xml:space="preserve"
       id="text28"
       style="font-style:normal;font-variant:normal;font-weight:normal;font-stretch:normal;font-size:2.82222px;line-height:1.25;font-family:Inconsolata;-inkscape-font-specification:'Inconsolata, @wght=400,wdth=100';font-variant-ligatures:normal;font-variant-caps:normal;font-variant-numeric:normal;font-variant-east-asian:normal;font-variation-settings:'wdth' 100, 'wght' 400;white-space:pre;shape-inside:url(#rect30);"
       transform="translate(16.216579,-4.590625)"><tspan
         x="3.2128906"
         y="22.825933"><tspan
           style="font-style:normal;font-variant:normal;font-weight:normal;font-stretch:normal;font-size:2.82222px;font-family:Inconsolata;-inkscape-font-specification:'Inconsolata, @wght=400,wdth=100';font-variant-ligatures:normal;font-variant-caps:normal;font-variant-numeric:normal;font-variant-east-asian:normal;font-variation-settings:'wdth' 100, 'wght' 400">(2)</tspan></tspan></text>
    <text
       xml:space="preserve"
       id="text34"
       style="font-style:normal;font-variant:normal;font-weight:normal;font-stretch:normal;font-size:2.82222px;line-height:1.25;font-family:Inconsolata;-inkscape-font-specification:'Inconsolata, @wght=400,wdth=100';font-variant-ligatures:normal;font-variant-caps:normal;font-variant-numeric:normal;font-variant-east-asian:normal;font-variation-settings:'wdth' 100, 'wght' 400;white-space:pre;shape-inside:url(#rect36);"
       transform="translate(11.247438,-4.0322163)"><tspan
         x="21.630859"
         y="22.245855"><tspan
           style="font-style:normal;font-variant:normal;font-weight:normal;font-stretch:normal;font-size:2.82222px;font-family:Inconsolata;-inkscape-font-specification:'Inconsolata, @wght=400,wdth=100';font-variant-ligatures:normal;font-variant-caps:normal;font-variant-numeric:normal;font-variant-east-asian:normal;font-variation-settings:'wdth' 100, 'wght' 400">(6)=&quot;16&quot;</tspan></tspan></text>
    <text
       xml:space="preserve"
       id="text40"
       style="font-style:normal;font-variant:normal;font-weight:normal;font-stretch:normal;font-size:2.82222px;line-height:1.25;font-family:Inconsolata;-inkscape-font-specification:'Inconsolata, @wght=400,wdth=100';font-variant-ligatures:normal;font-variant-caps:normal;font-variant-numeric:normal;font-variant-east-asian:normal;font-variation-settings:'wdth' 100, 'wght' 400;white-space:pre;shape-inside:url(#rect42);"
       transform="translate(5.7730219,-2.418428)"><tspan
         x="60.46875"
         y="20.593511"><tspan
           style="font-style:normal;font-variant:normal;font-weight:normal;font-stretch:normal;font-size:2.82222px;font-family:Inconsolata;-inkscape-font-specification:'Inconsolata, @wght=400,wdth=100';font-variant-ligatures:normal;font-variant-caps:normal;font-variant-numeric:normal;font-variant-east-asian:normal;font-variation-settings:'wdth' 100, 'wght' 400">(1)=&quot;AB&quot;</tspan></tspan></text>
    <text
       xml:space="preserve"
       id="text46"
       style="font-style:normal;font-variant:normal;font-weight:normal;font-stretch:normal;font-size:2.82222px;line-height:1.25;font-family:Inconsolata;-inkscape-font-specification:'Inconsolata, @wght=400,wdth=100';font-variant-ligatures:normal;font-variant-caps:normal;font-variant-numeric:normal;font-variant-east-asian:normal;font-variation-settings:'wdth' 100, 'wght' 400;white-space:pre;shape-inside:url(#rect48);"
       transform="translate(1.5005276,-5.1415976)"><tspan
         x="2.6171875"
         y="32.562261"><tspan
           style="font-style:normal;font-variant:normal;font-weight:normal;font-stretch:normal;font-size:2.82222px;font-family:Inconsolata;-inkscape-font-specification:'Inconsolata, @wght=400,wdth=100';font-variant-ligatures:normal;font-variant-caps:normal;font-variant-numeric:normal;font-variant-east-asian:normal;font-variation-settings:'wdth' 100, 'wght' 400">(3)=&quot;123&quot;</tspan></tspan></text>
    <text
       xml:space="preserve"
       id="text52"
       style="font-style:normal;font-variant:normal;font-weight:normal;font-stretch:normal;font-size:2.82222px;line-height:1.25;font-family:Inconsolata;-inkscape-font-specification:'Inconsolata, @wght=400,wdth=100';font-variant-ligatures:normal;font-variant-caps:normal;font-variant-numeric:normal;font-variant-east-asian:normal;font-variation-settings:'wdth' 100, 'wght' 400;white-space:pre;shape-inside:url(#rect54);"
       transform="translate(-13.688018,4.8514837)"><tspan
         x="30.599609"
         y="31.884526"><tspan
           style="font-style:normal;font-variant:normal;font-weight:normal;font-stretch:normal;font-size:2.82222px;font-family:Inconsolata;-inkscape-font-specification:'Inconsolata, @wght=400,wdth=100';font-variant-ligatures:normal;font-variant-caps:normal;font-variant-numeric:normal;font-variant-east-asian:normal;font-variation-settings:'wdth' 100, 'wght' 400">(4)=&quot;124&quot;</tspan></tspan></text>
    <text
       xml:space="preserve"
       id="text58"
       style="font-style:normal;font-variant:normal;font-weight:normal;font-stretch:normal;font-size:2.82222px;line-height:1.25;font-family:Inconsolata;-inkscape-font-specification:'Inconsolata, @wght=400,wdth=100';font-variant-ligatures:normal;font-variant-caps:normal;font-variant-numeric:normal;font-variant-east-asian:normal;font-variation-settings:'wdth' 100, 'wght' 400;white-space:pre;shape-inside:url(#rect60);"
       transform="translate(-17.029842,-2.1770728)"><tspan
         x="61.023438"
         y="29.554448"><tspan
           style="font-style:normal;font-variant:normal;font-weight:normal;font-stretch:normal;font-size:2.82222px;font-family:Inconsolata;-inkscape-font-specification:'Inconsolata, @wght=400,wdth=100';font-variant-ligatures:normal;font-variant-caps:normal;font-variant-numeric:normal;font-variant-east-asian:normal;font-variation-settings:'wdth' 100, 'wght' 400">(5)</tspan></tspan></text>
    <text
       xml:space="preserve"
       id="text64"
       style="font-style:normal;font-variant:normal;font-weight:normal;font-stretch:normal;font-size:2.82222px;line-height:1.25;font-family:Inconsolata;-inkscape-font-specification:'Inconsolata, @wght=400,wdth=100';font-variant-ligatures:normal;font-variant-caps:normal;font-variant-numeric:normal;font-variant-east-asian:normal;font-variation-settings:'wdth' 100, 'wght' 400;white-space:pre;shape-inside:url(#rect66);"
       transform="translate(-8.1574288,4.5827826)"><tspan
         x="58.113281"
         y="38.515386"><tspan
           style="font-style:normal;font-variant:normal;font-weight:normal;font-stretch:normal;font-size:2.82222px;font-family:Inconsolata;-inkscape-font-specification:'Inconsolata, @wght=400,wdth=100';font-variant-ligatures:normal;font-variant-caps:normal;font-variant-numeric:normal;font-variant-east-asian:normal;font-variation-settings:'wdth' 100, 'wght' 400">(9)=&quot;1259&quot;</tspan></tspan></text>
    <text
       xml:space="preserve"
       id="text70"
       style="font-style:normal;font-variant:normal;font-weight:normal;font-stretch:normal;font-size:2.82222px;line-height:1.25;font-family:Inconsolata;-inkscape-font-specification:'Inconsolata, @wght=400,wdth=100';font-variant-ligatures:normal;font-variant-caps:normal;font-variant-numeric:normal;font-variant-east-asian:normal;font-variation-settings:'wdth' 100, 'wght' 400;white-space:pre;shape-inside:url(#rect72);"
       transform="translate(-1.9873399,3.1254282)"><tspan
         x="2.0332031"
         y="40.247808"><tspan
           style="font-style:normal;font-variant:normal;font-weight:normal;font-stretch:normal;font-size:2.82222px;font-family:Inconsolata;-inkscape-font-specification:'Inconsolata, @wght=400,wdth=100';font-variant-ligatures:normal;font-variant-caps:normal;font-variant-numeric:normal;font-variant-east-asian:normal;font-variation-settings:'wdth' 100, 'wght' 400">(7)=&quot;1237&quot;</tspan></tspan></text>
    <path
       style="fill:none;stroke:#000000;stroke-width:0.264583px;stroke-linecap:butt;stroke-linejoin:miter;stroke-opacity:1"
       d="M 42.333334,2.6458334 29.104167,6.6145835"
       id="path78" />
    <path
       style="fill:none;stroke:#000000;stroke-width:0.264583px;stroke-linecap:butt;stroke-linejoin:miter;stroke-opacity:1"
       d="M 46.302084,2.6458334 58.208335,6.6145835"
       id="path80" />
    <path
       style="fill:none;stroke:#000000;stroke-width:0.264583px;stroke-linecap:butt;stroke-linejoin:miter;stroke-opacity:1"
       d="M 58.208335,9.2604169 70.114585,15.875"
       id="path105" />
    <path
       style="fill:none;stroke:#000000;stroke-width:0.264583px;stroke-linecap:butt;stroke-linejoin:miter;stroke-opacity:1"
       d="m 10.583333,21.166667 h 30.427084 v 0 0"
       id="path109" />
    <path
       style="fill:none;stroke:#000000;stroke-width:0.264583px;stroke-linecap:butt;stroke-linejoin:miter;stroke-opacity:1"
       d="M 21.695834,18.520834 V 19.84375"
       id="path111" />
    <path
       style="fill:none;stroke:#000000;stroke-width:0.264583px;stroke-linecap:butt;stroke-linejoin:miter;stroke-opacity:1"
       d="M 10.847917,19.84375 9.5250001,25.135417"
       id="path113"
       clip-path="url(#clipPath135)" />
    <path
       style="fill:none;stroke:#000000;stroke-width:0.264583px;stroke-linecap:butt;stroke-linejoin:miter;stroke-opacity:1"
       d="M 21.695834,19.84375 V 34.395834"
       id="path115" />
    <path
       style="fill:none;stroke:#000000;stroke-width:0.264583px;stroke-linecap:butt;stroke-linejoin:miter;stroke-opacity:1"
       d="M 8.7312502,27.781251 5.0270835,41.010418"
       id="path119" />
    <path
       style="fill:none;stroke:#000000;stroke-width:0.264583px;stroke-linecap:butt;stroke-linejoin:miter;stroke-opacity:1"
       d="m 46.302084,27.781251 8.731251,13.229167"
       id="path121" />
    <path
       style="fill:none;stroke:#000000;stroke-width:0.264583px;stroke-linecap:butt;stroke-linejoin:miter;stroke-opacity:1"
       d="M 45.24375,25.135417 41.275,19.84375 v 0 0"
       id="path123"
       clip-path="url(#clipPath147)" />
    <path
       style="fill:none;stroke:#000000;stroke-width:0.264583px;stroke-linecap:butt;stroke-linejoin:miter;stroke-opacity:1"
       d="m 41.010417,21.166667 h 1.322916"
       id="path125" />
    <path
       style="fill:none;stroke:#000000;stroke-width:0.264583px;stroke-linecap:butt;stroke-linejoin:miter;stroke-opacity:1"
       d="M 27.781251,9.2604169 21.695834,15.875"
       id="path170" />
    <path
       style="fill:none;stroke:#000000;stroke-width:0.264583px;stroke-linecap:butt;stroke-linejoin:miter;stroke-opacity:1"
       d="M 29.104167,9.2604169 35.189584,15.875"
       id="path172" />
  </g>
</svg>
